<svg xmlns="http://www.w3.org/2000/svg" xmlns:xlink="http://www.w3.org/1999/xlink" id="Layer_1" x="0px" y="0px" viewBox="0 0 395 398" style="enable-background:new 0 0 395 398;" xml:space="preserve"><style type="text/css">	.st0{fill:#0D144E;stroke:#0D144E;stroke-width:6;stroke-miterlimit:10;}	.st1{fill:#0D144E;stroke:#0D144E;stroke-width:9;stroke-miterlimit:10;}	.st2{fill:#5790F8;stroke:#5790F8;stroke-width:6;stroke-miterlimit:10;}</style><path class="st0" d="M105.3,321c0-1.5-0.8-3-2-3.8c-41.7-29.6-69-78.2-69-133.1c0-54.9,27.3-103.5,69-133.1c1.2-0.9,2-2.3,2-3.8v0 c0-3.8-4.3-6-7.4-3.9C53.8,74.5,25,126,25,184.1c0,58.1,28.9,109.5,73,140.8C101.1,327.1,105.3,324.8,105.3,321L105.3,321z"></path><path class="st0" d="M295,51.1L295,51.1c0,1.5,0.7,2.8,1.8,3.7c38.7,29.8,63.8,76.7,63.8,129.2c0,52.6-25,99.4-63.8,129.3 c-1.2,0.9-1.8,2.3-1.8,3.7v0c0,3.9,4.5,6.1,7.6,3.7c41-31.6,67.4-81.1,67.4-136.7c0-55.6-26.5-105.1-67.4-136.7 C299.5,45,295,47.2,295,51.1z"></path><path class="st1" d="M130,285.5c0-1.1-0.5-2.1-1.5-2.8c-30.3-21.5-50.1-56.8-50.1-96.7c0-39.9,19.8-75.2,50.1-96.7 c0.9-0.6,1.5-1.7,1.5-2.8v0c0-2.8-3.1-4.4-5.4-2.8c-32,22.7-53,60.1-53,102.2c0,42.2,20.9,79.5,53,102.2 C126.8,289.9,130,288.3,130,285.5L130,285.5z"></path><path class="st1" d="M267.7,89.5L267.7,89.5c0,1.1,0.5,2.1,1.3,2.7c28.1,21.7,46.3,55.7,46.3,93.9c0,38.2-18.2,72.2-46.3,93.9 c-0.8,0.6-1.3,1.6-1.3,2.7l0,0c0,2.8,3.2,4.4,5.5,2.7c29.8-22.9,49-58.9,49-99.3c0-40.4-19.2-76.4-49-99.3 C270.9,85,267.7,86.7,267.7,89.5z"></path><path class="st2" d="M196.9,238.8c-29.1,0-52.8-23.7-52.8-52.8c0-29.1,23.7-52.8,52.8-52.8c29.1,0,52.8,23.7,52.8,52.8 C249.7,215.1,226,238.8,196.9,238.8z M196.9,141.8c-24.4,0-44.2,19.8-44.2,44.2s19.8,44.2,44.2,44.2s44.2-19.8,44.2-44.2 S221.3,141.8,196.9,141.8z"></path><path class="st2" d="M196.9,356.6L196.9,356.6c-2.6,0-4.7-2.1-4.7-4.7V243.5c0-2.6,2.1-4.7,4.7-4.7h0c2.6,0,4.7,2.1,4.7,4.7v108.4 C201.6,354.5,199.5,356.6,196.9,356.6z"></path></svg>