<svg xmlns="http://www.w3.org/2000/svg" xmlns:xlink="http://www.w3.org/1999/xlink" id="Layer_1" x="0px" y="0px" viewBox="0 0 412 398" style="enable-background:new 0 0 412 398;" xml:space="preserve"><style type="text/css">	.st0{fill:#5790F8;stroke:#5790F8;stroke-width:2;stroke-miterlimit:10;}	.st1{fill:#0D144E;stroke:#0D144E;stroke-width:2;stroke-miterlimit:10;}</style><g>	<path class="st0" d="M395.1,209.6c-1.1,7.5-1.9,15.1-3.4,22.5c-7,34.9-23.8,64.8-48.1,90.5c-20,21.1-43.5,37.2-70.2,48.5  c-0.9,0.4-1.8,0.8-3.5,1.5c3.5,1.6,6.6,2.9,9.5,4.3c4.1,1.9,5.4,4.8,3.8,8.4c-1.5,3.5-4.8,4.7-8.7,2.9c-7.8-3.4-15.5-6.8-23.2-10.3  c-4.6-2.1-5.7-5.8-3-10c4.6-7.1,9.2-14.2,13.9-21.3c2.3-3.5,6-4.3,9-2.2c2.9,2,3.5,5.4,1.3,8.9c-1.1,1.9-2.3,3.7-3.5,5.5  c0.2,0.3,0.4,0.5,0.6,0.8c7.1-3.7,14.5-7.1,21.3-11.2c41.1-24.5,70.4-58.7,84.8-104.7c10.8-34.5,8.7-68.8-3.1-102.8  c-0.5-1.4-1.1-2.8-1.5-4.2c-1.2-4,0.3-7.4,3.8-8.5c3.3-1.1,6.6,0.6,7.9,4.5c2.5,7.4,5.2,14.8,6.9,22.5c2.1,9.6,3.2,19.4,4.7,29.1  c0.2,1.2,0.4,2.4,0.7,3.6C395.1,195.1,395.1,202.4,395.1,209.6z"></path>	<path class="st1" d="M116.6,252.2c-3.5-9.1-6.5-17.4-9.8-25.5c-0.4-0.9-1.8-2-2.8-2.1c-3.2-0.3-6.5,0-9.7-0.1  c-8.1-0.2-14.2-6.2-14.4-14.2c-0.2-7-0.2-14,0-20.9c0.2-8.1,6.4-14.1,14.4-14.2c3.7-0.1,7.5,0,11.1,0c2.7-6.6,5.1-13.1,8-19.4  c3.4-7.3,3.6-7.2-2.2-13c-8.5-8.5-8.5-16.2,0.2-24.8c4.1-4,8.2-8.1,12.4-11.9c6.4-5.8,14.6-5.6,20.8,0.4c2.8,2.7,5.2,5.7,7.1,7.7  c9.4-3.6,17.8-6.7,26.1-9.9c0.9-0.3,1.8-1.6,1.9-2.5c0.2-3.2,0-6.5,0.1-9.7c0.2-9,6.1-14.9,15.1-15c6.4-0.1,12.7-0.1,19.1,0  c8.5,0.1,14.3,5.7,14.8,14.2c0.2,4.1-1.1,9.1,0.9,12c1.8,2.6,7.1,2.8,10.8,4.3c4.9,2.1,9.7,4.5,15.8,7.4c2-2.3,4.2-5.3,6.8-7.9  c5.8-5.9,14.5-6.1,20.4-0.4c5.1,4.8,10,9.8,14.6,15c5.6,6.2,5.2,14.5-0.6,20.6c-2.2,2.2-4.5,4.3-6.6,6.7c-0.6,0.7-1.1,2.3-0.8,3.1  c1.8,4.2,4.1,8.3,5.8,12.5c1.7,4.1,2.9,8.4,4.5,12.9c3.9,0,7.9-0.1,11.9,0c8.6,0.2,14.5,6,14.7,14.6c0.2,6.7,0.1,13.5,0,20.2  c-0.2,8.4-6.2,14.2-14.5,14.5c-3.7,0.1-8.4-1.1-10.9,0.6c-2.5,1.8-2.7,6.6-4.1,10c-1.9,4.3-3.8,8.7-6.1,12.8  c-1.3,2.3-1.1,3.7,0.9,5.3c1.9,1.6,3.6,3.5,5.3,5.2c5.8,5.9,6.3,14.2,0.8,20.2c-5.1,5.5-10.5,10.7-16.1,15.6  c-5.7,4.9-13.9,4.3-19.4-0.9c-2.3-2.1-4.5-4.3-6.6-6.6c-1.4-1.5-2.5-1.6-4.4-0.8c-7.3,3.2-14.7,6-22,9.1c-1,0.4-2.2,1.9-2.3,3  c-0.3,2.8-0.1,5.7-0.1,8.6c-0.2,9.5-6.1,15.4-15.5,15.4c-7.4-0.1-14.7-0.1-22-0.6c-6.5-0.4-11.4-5.9-11.7-12.4  c-0.2-3.4-0.2-6.7,0-10.1c0.1-2.1-0.7-2.9-2.6-3.7c-7.3-2.9-14.5-5.9-21.6-9.1c-1.7-0.8-2.8-0.9-4.2,0.6c-1.9,2.1-4,4.1-6.1,6.1  c-5.8,5.7-14.2,6.1-20.2,0.5c-5.3-4.9-10.3-10.1-15.1-15.5c-5.2-5.9-4.8-14.3,0.8-20C111.6,256.9,114.5,254.3,116.6,252.2z   M202.4,311.9c3,0,6,0,9,0c2.5,0,3.5-1.1,3.5-3.6c-0.1-5-0.1-10,0-15c0-3.6,1.7-6,5.3-6.6c11.2-2.1,21.4-6.4,31-12.5  c3.2-2,6.1-1.6,8.8,1.1c3.3,3.4,6.8,6.6,10,10.1c2.3,2.5,4,2.3,6.2,0c3.7-3.8,7.6-7.6,11.6-11.2c2.3-2.1,2.5-3.7,0.1-5.8  c-3.3-3-6.4-6.3-9.6-9.5c-3.1-3.2-3.4-5.6-1-9.4c5.9-9.1,10.1-18.8,12.5-29.4c1-4.4,3-5.9,7.7-5.9c4.5,0,9-0.1,13.5,0  c2.7,0.1,3.9-0.8,3.9-3.6c-0.1-5.7-0.1-11.5,0-17.2c0-2.7-1.1-3.8-3.8-3.8c-5.1,0.1-10.2,0-15.3,0c-3.8,0-6.1-1.9-6.8-5.6  c-2-10.8-6.2-20.7-12-30c-2.6-4.2-2.3-6.3,1.2-9.9c3.2-3.3,6.5-6.6,9.8-9.8c1.9-1.8,2.2-3.3,0.2-5.3c-4.1-4-8.1-8.2-12-12.4  c-1.9-2-3.4-2-5.3-0.1c-3.2,3.3-6.5,6.6-9.8,9.8c-3.1,3-5.5,3.4-9,1.1c-9.3-6.1-19.3-10.2-30.1-12.8c-4.1-1-5.6-2.9-5.6-7.2  c-0.1-4.9-0.1-9.7,0-14.6c0.1-2.5-0.7-3.7-3.4-3.6c-5.7,0.1-11.5,0.1-17.2,0c-2.5,0-3.6,0.9-3.6,3.6c0.1,5.1,0,10.2,0,15.3  c0,3.8-1.8,6.3-5.5,7c-11.1,2-21.2,6.4-30.7,12.3c-3.7,2.3-6,2-9-1c-3.5-3.4-7-6.8-10.3-10.3c-1.9-2-3.4-2-5.3-0.1  c-4.1,4.1-8.2,8.1-12.4,11.9c-2.1,2-1.8,3.5,0.1,5.3c3.2,3.1,6.4,6.3,9.5,9.5c3.2,3.3,3.5,5.8,1,9.7c-5.8,9-10,18.6-12.3,29.1  c-1,4.6-2.9,6-7.6,6.1c-4.6,0.1-9.2,0.1-13.8,0c-2.4,0-3.7,0.8-3.7,3.5c0.1,5.9,0.1,11.7,0,17.6c0,2.5,1,3.6,3.6,3.5  c5-0.1,10-0.1,15,0c3.7,0,6.1,1.8,6.8,5.6c2.1,11,6.4,21.2,12.4,30.6c2,3.1,1.7,6.1-1,8.8c-3.5,3.4-6.8,7-10.4,10.3  c-2.2,2-2,3.6,0,5.6c4,3.9,7.9,8,11.7,12.1c2.1,2.2,3.6,1.9,5.6-0.1c3.2-3.3,6.5-6.5,9.8-9.8c2.7-2.7,5.7-3,8.8-0.9  c9.3,6.1,19.3,10.3,30.1,12.8c4.1,0.9,5.5,2.9,5.6,7.2c0,4.4,0.2,8.7,0,13.1c-0.2,3.3,0.9,4.9,4.5,4.6  C197.1,311.7,199.8,311.9,202.4,311.9z"></path>	<path class="st0" d="M42.1,143.2c-3.3,10.8-7,21.4-9.9,32.2C26,198.5,28.4,221.5,35,244c17.8,61,57.7,101.1,117.7,121.3  c17.9,6,36.4,8.3,55.2,8.1c1.7,0,3.5-0.1,5.2,0c3.8,0.1,6.2,2.5,6.2,6c0,3.5-2.3,6.2-6.1,6.1c-10-0.2-20,0-29.9-1.1  c-36.2-4.2-68.7-17.6-96.9-40.6C49,313.3,26.3,274.1,18.4,226.2c-4.7-28.3,0.2-55,10.3-81.3c0.6-1.5,1.1-3,1.9-5.4  c-3.4,1.6-6.1,3-8.8,4.2c-4.1,1.9-7.6,1.1-9.3-2.3c-1.7-3.4-0.3-6.6,3.9-8.8c7.3-3.7,14.7-7.4,22.1-11c4.7-2.3,7.8-1.2,10,3.6  c3.6,7.8,7.1,15.6,10.6,23.5c1.8,4.1,0.7,7.2-2.8,8.8c-3.5,1.6-6.5,0.3-8.4-3.7c-1.6-3.4-3.2-6.8-4.7-10.1  C43.1,143.6,42.9,143.6,42.1,143.2z"></path>	<path class="st0" d="M353.5,97.4c-10.2-13-21.2-23.7-33.6-33c-27.9-21-59.1-34.8-93.9-38.7c-49.4-5.5-94,7.2-132.6,38.6  C83.7,72.2,75.7,82,66.9,90.8c-1.3,1.3-2.7,2.8-4.3,3.4c-2.5,0.9-5,0.1-6.6-2.2c-1.9-2.7-1.6-5.5,0.5-7.9  c6.7-7.4,13.1-15.1,20.4-21.9c31.6-29.1,69-45.4,111.8-49.3C231.2,9,270.4,19.7,307,41c19.5,11.4,36.7,25.7,52.3,43.8  c0-3.1,0-5.2,0-7.3c0.1-4.2,2.7-7,6.3-6.9c3.4,0,6,2.6,6.1,6.7c0.2,8.6,0.2,17.2,0.2,25.8c0,4-2.8,6.7-7,6.7  c-9.2,0.1-18.5,0.1-27.7,0c-4.3-0.1-6.8-2.7-6.6-6.5c0.1-3.6,2.6-5.9,6.8-5.9C342.4,97.3,347.5,97.4,353.5,97.4z"></path>	<path class="st1" d="M147.8,201.2c0.1-30.3,25.9-55.6,56.1-54.8c1.6,0,3.3,0.2,4.8,0.7c2.8,0.8,4.5,2.7,4.4,5.7  c-0.1,3-1.7,5-4.7,5.4c-3.7,0.5-7.5,0.5-11.1,1.1c-18.6,2.9-33.2,16.6-36.3,34c-3.2,17.9,4.8,35.1,20.8,44.4  c15.6,9.1,36.2,7.3,50.1-4.3c15.2-12.7,19.5-32.4,11-50.8c-1.2-2.7-2-5.6,0.4-7.6c1.6-1.3,4.4-2.4,6.2-1.9c1.9,0.5,3.8,2.8,4.7,4.7  c13,26.5,1.5,58.9-25.4,72.1c-34,16.7-73.8-3.4-80.4-40.7C148.1,206.7,148,203.9,147.8,201.2z"></path>	<path class="st1" d="M239.4,161.1c-0.2,5.7-4.9,8.4-9.2,6.2c-2.2-1.2-4.3-2.5-6.3-4c-2.6-1.9-3.3-5.2-1.9-8  c1.5-2.8,4.7-4.1,7.7-2.6c2.7,1.3,5.3,2.9,7.6,4.7C238.5,158.4,239,160.3,239.4,161.1z"></path></g></svg>