<svg xmlns="http://www.w3.org/2000/svg" xmlns:xlink="http://www.w3.org/1999/xlink" id="Layer_1" x="0px" y="0px" viewBox="0 0 395 398" style="enable-background:new 0 0 395 398;" xml:space="preserve"><style type="text/css">	.st0{fill:#0D144E;stroke:#0D144E;stroke-width:2;stroke-miterlimit:10;}	.st1{fill:#5790F8;stroke:#5790F8;stroke-width:2;stroke-miterlimit:10;}</style><g>	<path class="st0" d="M46.9,255.5c0.4,2.4,2.1,3.4,4.4,3.4c2.3,0,4-1,4.4-3.4c0.2-1.3,0.2-2.6,0.2-3.9c0-25.7,0-51.4,0-77.1  c0-10.3,6.5-16.7,16.8-16.7c8.7,0,17.5,0,26.2,0h3v-9.1h-3.3c-8.3,0-16.7,0-25,0c-16.6,0-26.8,10.2-26.9,26.8c0,25.6,0,51.2,0,76.8  C46.7,253.3,46.7,254.4,46.9,255.5z"></path>	<path class="st0" d="M346.9,310.4c-0.1-2.5-1.8-4-4.4-4.1c-2.3-0.1-4.6,0-7.3,0v-3.9c0-22,0-43.9,0-65.9c0-20.6,0.1-41.3,0-61.9  c-0.1-15.7-10.5-26-26-26.1c-8.8,0-17.7,0-26.5,0h-4.1v10.1c0.4-0.5,0.9-0.9,1.3-0.9c10.6-0.1,21.1-0.3,31.7,0.1  c8.1,0.3,13.8,6.5,14.4,14.6c0.1,1.1,0.1,2.2,0.1,3.3c0,42.2,0,84.3,0,126.5v3.8h-9.1v-4c0-41.7,0-83.3,0-125c0-1,0-2,0-3  c-0.1-3.9-1.7-5.5-5.7-5.5c-9.9,0-19.7,0-29.6,0h-3.1v9.4h29c0.1,1.1,0.2,2.1,0.2,3.2c0,40.6,0,81.1,0.1,121.7  c0,2.8-0.7,3.6-3.5,3.6c-75.5-0.1-151-0.1-226.5-0.1h-3.3V177.9h27.4v-9.4h-3.3c-8.6,0-17.3,0-25.9,0c-6.6,0-7.6,1-7.6,7.5  c0,42,0,83.9,0,125.9v4h-9.1c0-1.3,0-2.4,0-3.5c0-7.5,0-15,0-22.6c0-2.4-0.5-4.5-3.1-5.3c-3.3-1-6,1-6,4.8c-0.1,7.6,0,15.2,0,22.9  c0,1.2,0,2.4,0,3.9c-2.2,0-4.1,0.1-5.9,0c-2.7-0.2-4.7,0.8-6,3.2v15.9c0.2,0.4,0.3,0.7,0.4,1.1c3.7,12.5,11.4,18.3,24.3,18.3  c74.3,0,148.6,0,222.9,0c1.1,0,2.3,0.1,3.3-0.2c2.4-0.6,3.6-2.2,3.4-4.7c-0.1-2.5-1.4-4-3.9-4.2c-1.1-0.1-2.2-0.1-3.4-0.1  c-64.2,0-128.5,0-192.7,0c-10.3,0-20.5,0-30.8,0c-4,0-7.6-1.2-10.5-4.1c-4.6-4.5-4.2-10.2-3.7-15.9h122.2c0.1,0.6,0.1,1.1,0.2,1.6  c1.4,8.2,7,13.1,15.4,13.1c6.4,0.1,12.8,0.1,19.2-0.1c6.4-0.2,11.9-4.6,13.5-10.8c0.3-1.2,0.5-2.5,0.8-3.7h122.4c0,2,0,3.7,0,5.4  c-0.1,8.8-5.7,14.4-14.6,14.5c-4.1,0-8.1,0-12.2,0c-3.4,0-5,1.5-5,4.4c-0.1,3,1.6,4.7,5.1,4.7c4.6,0.1,9.2,0.2,13.7,0  c11.3-0.5,20.2-8.1,21.8-19.3C347.4,320.5,347.1,315.4,346.9,310.4z M200.5,321.1c-6.4,0.1-12.8,0.1-19.1,0  c-3.3-0.1-4.8-1.6-5.6-5.4h30.1C205.4,319.2,203.8,321,200.5,321.1z"></path></g><g>	<path class="st1" d="M277.1,140.1h0.1c0-4-0.1-7.8,0.1-11.7c0.1-1.6,0.6-3.4,1.6-4.7c8.9-12.5,17.9-24.9,26.9-37.3  c0.5-0.7,1.1-1.3,1.9-2.3c2.6,5,2.4,9.4-0.7,13.7c-6.2,8.6-12.4,17.1-18.5,25.7c-2.2,3.1-2,5.3,0.4,7.1c2.5,1.8,4.7,1.3,6.9-1.8  c6.3-8.6,12.6-17.2,18.7-26c5.6-7.9,5.6-17.1-0.1-25c-1-1.5-1-2.3,0.1-3.7c2.8-3.7,5.6-7.5,8.2-11.4c5.4-8.2,4.2-18.7-2.6-25.4  c-8.8-8.5-22.7-7.4-30.2,2.8c-12.4,17-24.7,34-36.9,51.2c-2.3,3.2-4.3,4.6-8.7,4.6c-36.5-0.3-73-0.3-109.5,0  c-4.8,0-10,1.1-14.4,3.2c-11.4,5.4-17.4,14.5-18.6,26.4v68.5c0.1,2.2,0.4,4.3,0.8,6.5c2.5,13.4,11.4,21.6,24.6,24.9  c2,0.5,2.6,1.3,2.6,3.2c-0.1,10.2,0,20.3,0,30.5c0,2.5,0.2,4.8,2.9,5.8c2.6,1,4.4-0.4,6.2-2.2c11.3-11.4,22.7-22.7,34-34.1  c1.7-1.7,3.4-2.5,5.8-2.5c13.7,0.1,27.4,0,41.2,0.1c2.7,0,4.9-0.7,5.4-3.7c0.5-3.3-1.4-5.4-5.2-5.4c-8.6,0-17.3,0-25.9,0  c-6.3,0-12.6,0.1-18.9,0c-2.5,0-4.4,0.8-6.2,2.6c-8.9,9-17.9,18-26.9,27c-0.8,0.8-1.3,1.8-2,2.7c-0.3-0.2-0.6-0.3-0.9-0.5  c-0.1-0.9-0.2-1.9-0.2-2.8c0-7.5,0-15,0-22.6c0-4.8-1.3-6.2-6-6.5c-11.5-0.6-20.9-9.8-21.9-21.2c-0.1-1.3-0.2-2.6-0.2-4  c0-20.5,0-41.1,0-61.6c0-15.7,9.8-25.4,25.6-25.4c34.3,0,68.5,0,102.8,0h4c-8.1,11.3-15.4,22.3-23.6,32.4  c-6.1,7.5-9.1,15.4-8.3,25.1c0.4,4.6-0.1,9.3-0.1,14c0,4.2,2.7,6.2,6.6,4.8c8.1-2.8,16.3-5.7,24.3-8.7c1.4-0.5,2.7-1.8,3.6-3  c6.7-9.2,13.4-18.4,20-27.6c0.6-0.8,1.2-1.5,2.2-2.7c0.1,1.5,0.3,2.3,0.3,3.2c0,16.8,0.1,33.5,0,50.3c-0.1,12.5-7.5,21.7-19.1,24.1  c-1.5,0.3-3,0.2-4.5,0.4c-2.9,0.4-4.3,2.2-4.1,5c0.2,2.6,1.8,4,4.7,4.1c15.9,0.3,30.9-13.2,32-29.2c0.1-1,0.1-1.9,0.1-2.9V140.1z   M297.7,45c3.5-4.5,9.8-5.4,14.5-2.2c4.7,3.2,6.3,9.6,3.1,14.5c-2.8,4.4-6.1,8.6-9.4,13.2c-5.9-4.2-11.6-8.4-17.6-12.7  C291.6,53.4,294.5,49.1,297.7,45z M220.5,170.6v-11.7c3.8,2.7,7.1,5.1,10.8,7.8C227.4,168.1,224,169.3,220.5,170.6z M240.1,161.7  c-5.9-4.2-11.6-8.3-17.6-12.7c20.2-27.9,40.2-55.7,60.5-83.8c5.9,4.3,11.6,8.4,17.5,12.7C280.4,105.9,260.3,133.7,240.1,161.7z"></path>	<path class="st1" d="M166.9,149.5c-8,0-16,0-24,0c-3.9,0-5.9-1.6-5.8-4.6c0-2.9,2.2-4.5,6-4.5c15.8,0,31.7,0,47.5,0  c0.5,0,1,0,1.5,0c2.9,0.3,4.6,2.1,4.6,4.7c0,2.6-1.8,4.4-4.8,4.4C183.6,149.5,175.3,149.5,166.9,149.5  C166.9,149.5,166.9,149.5,166.9,149.5z"></path>	<path class="st1" d="M166.9,181.8c-8.1,0-16.2,0-24.4,0c-3.5,0-5.4-1.6-5.5-4.4c-0.1-2.9,1.9-4.8,5.4-4.8c16.2,0,32.5,0,48.7,0  c3.5,0,5.5,1.9,5.5,4.8c-0.1,2.8-2,4.4-5.4,4.4C183.1,181.8,175,181.8,166.9,181.8z"></path></g></svg>