<?xml version="1.0" encoding="UTF-8"?>
<svg xmlns="http://www.w3.org/2000/svg" xmlns:xlink="http://www.w3.org/1999/xlink" id="Layer_1" x="0px" y="0px" viewBox="0 0 395 398" style="enable-background:new 0 0 395 398;" xml:space="preserve">
  <style type="text/css">	.st0{fill:#0D144E;stroke:#0D144E;stroke-miterlimit:10;}	.st1{fill:#5790F8;stroke:#5790F8;stroke-miterlimit:10;}</style>
  <g>	<path class="st0" d="M103.2,110.6c0-5.8,0-11.1,0-16.3c0-17.8,10.9-28.7,28.6-28.8c52.9,0,105.8,0,158.7,0c15.3,0,30.7,0,46,0  c17.8,0.1,28.6,11,28.6,28.8c0,61.1,0,122.3,0,183.4c0,27.6-18.2,49.3-45.3,54.1c-3,0.5-6.2,0.7-9.3,0.7c-79,0-157.9,0.1-236.9,0  c-21.2,0-37.8-13-42.6-33c-0.8-3.4-1.2-6.9-1.2-10.4c-0.1-50.3-0.1-100.5,0-150.8c0-16.5,11.2-27.7,27.7-27.7c13.7,0,27.4,0,41.2,0  C100.1,110.6,101.4,110.6,103.2,110.6z M102.2,320.5c2.2,0,3.4,0,4.6,0c67.2,0,134.5,0,201.7,0c3.2,0,6.5,0,9.7-0.6  c20.9-3.7,34.9-20.6,34.9-42.3c0-61.3,0-122.5,0-183.8c0-10.7-5.6-16.3-16.4-16.4c-14.2,0-28.4,0-42.7,0c-53.9,0-107.8,0-161.7,0.1  c-3.6,0-7.5,0.8-10.6,2.5c-5.2,2.8-6.6,8-6.6,13.7c0,63.9-0.1,127.7,0.1,191.6C115.4,298.5,112.2,310.1,102.2,320.5z M103.1,122.6  c-15.1,0-29.8,0-44.5,0c-11.3,0-16.8,5.5-16.8,16.7c0,42.8,0,85.6,0,128.4c0,7.7-0.1,15.5,0.1,23.2c0.5,19.3,18.9,33.3,37.6,28.9  c14.2-3.4,23.7-15.3,23.7-30.1c0.1-54.6,0-109.3,0-163.9C103.2,124.8,103.2,123.9,103.1,122.6z"></path>	<path class="st1" d="M173.5,172.3c-6.2,0-12.5,0.1-18.7,0c-10.6-0.2-18-7.2-18.3-17.7c-0.3-12.8-0.3-25.7,0-38.5  c0.2-10.4,7.5-17.5,17.9-17.8c12.7-0.3,25.4-0.3,38.2,0c10.6,0.2,17.7,7.5,17.9,18.2c0.2,12.6,0.3,25.2,0,37.8  c-0.2,11-7.7,18-18.7,18.1C185.8,172.4,179.7,172.3,173.5,172.3z M173.3,160.3c6,0,12,0,17.9,0c5.3,0,7.4-2,7.4-7.1  c0.1-12,0.1-23.9,0-35.9c0-4.9-2.2-7.1-7.1-7.2c-12-0.1-23.9-0.1-35.9,0c-5,0-7.2,2.2-7.2,7c-0.1,12.1-0.1,24.2,0,36.2  c0,4.8,2.1,6.8,6.9,6.9C161.3,160.4,167.3,160.3,173.3,160.3z"></path>	<path class="st1" d="M235.3,218.7c-28.8,0-57.6,0-86.4,0c-1.4,0-2.8,0.1-4.1-0.1c-3-0.4-4.7-2.3-5-5.2c-0.3-3.1,1.2-5.3,4.2-6.2  c1.4-0.4,3-0.4,4.4-0.4c58,0,115.9,0,173.9,0c1.5,0,3,0.1,4.4,0.5c2.9,0.8,4.2,3,4.1,5.9c-0.2,3-1.8,4.9-4.8,5.4  c-1.3,0.2-2.7,0.2-4.1,0.2C293.1,218.7,264.2,218.7,235.3,218.7z"></path>	<path class="st1" d="M235.3,265.2c-28.7,0-57.3,0-86,0c-1.6,0-3.3,0.1-4.8-0.3c-2.9-0.6-4.6-2.5-4.7-5.5c-0.1-3.2,1.5-5.2,4.5-5.9  c1.3-0.3,2.7-0.3,4.1-0.3c58,0,115.9,0,173.9,0c1.5,0,3,0,4.4,0.4c2.9,0.8,4.2,2.9,4.1,5.9c-0.1,2.8-1.6,4.7-4.4,5.4  c-1.6,0.4-3.2,0.3-4.8,0.3C292.9,265.2,264.1,265.2,235.3,265.2z"></path>	<path class="st1" d="M283.4,125.9c-12.8,0-25.7,0-38.5,0c-1.4,0-2.8,0-4.1-0.2c-3-0.5-4.6-2.6-4.7-5.5c-0.1-2.7,1.2-4.9,3.9-5.8  c1.3-0.4,2.7-0.5,4-0.5c26.3,0,52.6,0,78.9,0c1,0,2,0,3,0.2c3.4,0.6,5.3,3.1,5,6.3c-0.3,3.3-2.3,5.2-5.6,5.4  c-2.7,0.2-5.5,0.1-8.2,0.1C305.8,125.9,294.6,125.9,283.4,125.9z"></path>	<path class="st1" d="M283.4,172.3c-13,0-25.9,0-38.9,0c-1.2,0-2.5,0-3.7-0.2c-3-0.6-4.5-2.6-4.7-5.5c-0.1-2.7,1.2-4.9,3.9-5.7  c1.4-0.4,2.9-0.5,4.4-0.5c26.1,0,52.1,0,78.2,0c1.1,0,2.3,0,3.4,0.2c3.4,0.6,5.3,3.1,5,6.3c-0.3,3.3-2.3,5.2-5.6,5.4  c-2.7,0.2-5.5,0.1-8.2,0.1C305.8,172.3,294.6,172.3,283.4,172.3z"></path></g>
</svg>
