<svg xmlns="http://www.w3.org/2000/svg" xmlns:xlink="http://www.w3.org/1999/xlink" id="Layer_1" x="0px" y="0px" viewBox="0 0 395 398" style="enable-background:new 0 0 395 398;" xml:space="preserve"><style type="text/css">	.st0{fill:#0D144E;stroke:#0D144E;stroke-miterlimit:10;}	.st1{fill:#5790F8;}</style><g>	<path class="st0" d="M349.5,244.4c-4.7-7.9-14.1-11.7-24.2-9.6c-3.4,0.7-6.6,1.8-10.1,2.7c0,0,0-0.1,0.1-0.1l-17.8,7.1  c-0.5,0.4-1.1,0.7-1.7,0.9c-13.3,5.3-26.7,10.5-40.1,15.7c-4.3,1.7-8.6,3.4-12.8,5c-0.5-3.4-0.7-6.7-1.3-9.9  c-0.1-0.8-0.3-1.6-0.5-2.4c-0.6-2.5-1.4-5-2.3-7.5c-3.5-7.7-10-14.6-16.8-20.1c-7.7-5.4-15.5-10.5-23.4-14.9c0,0,0,0,0,0  c-10.4-5.7-21.1-10-32.6-12h0c-15.5-1.7-28.7,0.6-38,3.3c-1,0.5-2.3,1-3.9,1.6c-3.4,1.3-6.8,2.6-10.3,3.9c0,0,0,0,0,0c0,0,0,0,0,0  c-1-12.2-5.6-16.3-17.2-16.3c-15.8,0-31.7,0-47.5,0c-1.3,0-2.7,0-4,0.4c-2.5,0.7-3.7,2.6-3.5,5.1c0.2,2.6,1.7,4.1,4.2,4.5  c1.1,0.2,2.3,0.1,3.4,0.1c16.3,0,32.6,0,48.9,0c4.4,0,5.4,1,5.4,5.4c0,32,0,64.1,0,96.1c0,4.3-0.8,5.1-5.2,5.2  c-9.6,0-19.2,0-28.9,0c-7.5,0-14.9-0.1-22.4,0.1c-3.5,0.1-5.5,2.2-5.4,5.2c0.1,2.9,2.1,4.9,5.4,4.9c17.9,0.1,35.8,0.1,53.6-0.1  c7.5-0.1,12.7-5.8,13.1-13.4c0-1,0.1-1.9,0.3-3.3c4.1,0.5,8,0.7,11.7,1.4c9.6,1.7,17.6,7,25.7,11.9c14.1,8.4,27.8,17.4,44.4,20.3  h10.9c7.8-2.4,16-4.2,23.4-7.5c18.6-8.1,37-17,55.4-25.5c0.5-0.2,1-0.5,1.5-0.8c2-1.5,2.9-3.5,1.9-6c-1-2.6-3-3.6-5.7-3.1  c-1.4,0.3-2.8,1-4.1,1.6c-18.8,8.7-37.5,17.3-56.3,26c-15.1,7-30,6.6-44.6-1.5c-9.2-5.1-18.2-10.5-27.3-15.7  c-7.8-4.5-15.7-8.7-24.7-10c-4-0.6-8-0.9-12.2-1.3c-0.1-0.4-0.2-0.9-0.2-1.3c0-23.1,0-46.2,0.1-69.3c0-1,1.1-2.4,2.1-2.8  c4.5-1.9,9.1-3.4,13.6-5.3c13.8-5.9,27.9-6,42.2-2.1c18.7,5.1,34.7,15.6,49.5,27.4c9.6,7.7,12.9,18.9,10.6,31.2  c-1.4,7.3-7,11.2-14.2,9.5c-4-0.9-7.9-2.7-11.4-4.9c-11.1-6.9-22-14.2-33-21.4c-2.8-1.9-5.6-4-8.6-5.4c-1.5-0.7-3.9-0.4-5.3,0.5  c-1.2,0.8-2.2,3.2-1.9,4.6c0.3,1.6,1.9,3.3,3.3,4.3c13.6,9,27.2,18,41,26.6c4,2.5,8.5,4.3,13,5.5c9.7,2.6,17.9-0.8,23.8-8.9  c0.7-1,1.9-1.9,3.1-2.3c26.6-10.4,53.2-20.9,79.9-31.1c2.9-1.1,6.1-1.7,9.2-2c4.5-0.3,8.3,1.3,10.5,5.4c2.2,4,2.1,8.4-0.7,11.8  c-2.7,3.3-6.1,6.4-9.9,8.4c-8.7,4.6-17.8,8.4-26.7,12.6c-3.9,1.8-5.2,4.5-3.7,7.4c1.4,2.8,4.2,3.5,7.9,1.9c9-4.2,18.2-8.1,27-12.7  c4.4-2.3,8.7-5.4,12-9.1C353.6,262.7,354.3,252.3,349.5,244.4z"></path></g><path class="st1" d="M269.1,63c4.5,0.9,9.1,1.6,13.5,2.8c35.3,9.6,59.1,42.4,57.5,79.2c-1.6,36-28.6,66.6-64.3,73 c-41.9,7.5-82.9-20.5-90.4-61.7c-8-43.6,19.8-84.1,63-92c2.2-0.4,4.4-0.8,6.6-1.3C259.6,63,264.4,63,269.1,63z M261.8,205.1 c35.2,0.1,64-28.6,64.1-63.8c0.1-35.3-28.6-64-63.8-64.1c-35.2-0.1-64,28.6-64.1,63.8C198,176.3,226.6,205,261.8,205.1z"></path><path class="st1" d="M254.9,176.8c-4.7-3.7-8.8-6.6-12.4-10.1c-3.2-3.1-3-7.3-0.1-10.1c3-2.9,7-2.6,10.4,0.5 c2.1,1.9,4.3,3.8,6.8,4.8c4,1.7,8.3-1,9.3-5.2c0.9-3.9-2-7.8-6.1-8.4c-1.4-0.2-2.8-0.1-4.2-0.4c-9.5-1.7-16.5-9-17.7-18.3 c-1.2-8.9,3.5-17.6,11.9-21.9c0.6-0.3,1.3-0.6,2.1-1.1c0-2.6-0.1-5.3,0-8c0.2-4.3,3.2-7.3,7.2-7.2c3.8,0.1,6.8,3,6.9,7.1 c0.1,2.7,0,5.4,0,7.5c3.5,2.3,6.6,4.2,9.4,6.5c3.8,3.2,4.2,7.3,1.4,10.6c-2.7,3.1-6.7,3.2-10.4,0.3c-1.5-1.1-3.1-2.2-4.8-3 c-2.8-1.2-5.4-0.6-7.5,1.4c-2.1,1.9-2.8,4.4-1.9,7.1c1,3,3.1,4.6,6.2,5c2.4,0.3,5,0.4,7.3,1.3c8.7,3,13.6,9.4,14.4,18.4 c0.7,8.9-3.1,16-11,20.2c-2.6,1.4-3.3,2.9-3,5.5c0.1,1.6,0.1,3.3,0,5c-0.4,3.8-3.5,6.6-7.2,6.5c-3.7-0.1-6.7-2.9-6.9-6.7 C254.8,181.3,254.9,178.5,254.9,176.8z"></path></svg>