<?xml version="1.0" encoding="UTF-8"?>
<svg xmlns="http://www.w3.org/2000/svg" width="225" height="111" viewBox="0 0 225 111" fill="none">
  <path fill-rule="evenodd" clip-rule="evenodd" d="M46.6796 46.6787V46.6794V63.3574H30.0009V46.6794V46.6787V32.0006C30.0009 30.8961 30.8963 30.0006 32.0009 30.0006H46.6789V30H63.3544H63.3577H78.0331C79.1377 30 80.0331 30.8954 80.0331 32V46.6787H80.0357V63.3574H63.357V46.6787H63.3544H46.6796ZM89.1842 30.0006C88.0796 30.0006 87.1842 30.8961 87.1842 32.0006V46.6787V46.6794V63.3574H103.862H103.863H118.541C119.646 63.3574 120.541 62.462 120.541 61.3574V48.6787C120.541 47.5741 119.646 46.6787 118.541 46.6787H103.863V32.0006C103.863 30.8961 102.967 30.0006 101.863 30.0006H89.1842ZM120.543 32.0006C120.543 30.8961 121.438 30.0006 122.543 30.0006H135.222C136.326 30.0006 137.222 30.8961 137.222 32.0006V44.6794C137.222 45.7839 136.326 46.6794 135.222 46.6794H122.543C121.438 46.6794 120.543 45.7839 120.543 44.6794V32.0006ZM144.963 32.0006C144.963 30.8961 145.859 30.0006 146.963 30.0006H159.642C160.747 30.0006 161.642 30.8961 161.642 32.0006V44.6794C161.642 45.7839 160.747 46.6794 159.642 46.6794H146.963C145.859 46.6794 144.963 45.7839 144.963 44.6794V32.0006ZM163.644 46.6787C162.539 46.6787 161.644 47.5741 161.644 48.6787V61.3574C161.644 62.462 162.539 63.3574 163.644 63.3574H176.323C177.427 63.3574 178.323 62.462 178.323 61.3574V48.6787C178.323 47.5741 177.427 46.6787 176.323 46.6787H163.644ZM178.321 32.0006C178.321 30.8961 179.217 30.0006 180.321 30.0006H193C194.105 30.0006 195 30.8961 195 32.0006V44.6794C195 45.7839 194.105 46.6794 193 46.6794H180.321C179.217 46.6794 178.321 45.7839 178.321 44.6794V32.0006ZM180.321 63.3568C179.217 63.3568 178.321 64.2522 178.321 65.3568V78.0355C178.321 79.1401 179.217 80.0355 180.321 80.0355H193C194.105 80.0355 195 79.1401 195 78.0355V65.3568C195 64.2522 194.105 63.3568 193 63.3568H180.321ZM144.963 65.3603C144.963 64.2557 145.859 63.3603 146.963 63.3603H159.642C160.747 63.3603 161.642 64.2557 161.642 65.3603V78.039C161.642 79.1435 160.747 80.039 159.642 80.039H146.963C145.859 80.039 144.963 79.1435 144.963 78.039V65.3603ZM122.541 63.3568C121.437 63.3568 120.541 64.2522 120.541 65.3568V78.0355C120.541 79.1401 121.437 80.0355 122.541 80.0355H135.22C136.325 80.0355 137.22 79.1401 137.22 78.0355V65.3568C137.22 64.2522 136.325 63.3568 135.22 63.3568H122.541ZM46.6789 80.0366V63.3579H63.3577V63.3596H80.0357V78.0383C80.0357 79.1429 79.1403 80.0383 78.0357 80.0383H63.357V80.0366H46.6789ZM87.1851 63.3603H103.864V78.039C103.864 79.1435 102.968 80.039 101.864 80.039H89.1851C88.0805 80.039 87.1851 79.1435 87.1851 78.039V63.3603ZM46.6787 63.3603H30V78.039C30 79.1435 30.8954 80.039 32 80.039H46.6787V63.3603Z" fill="#292B33"></path>
</svg>
