<svg xmlns="http://www.w3.org/2000/svg" xmlns:xlink="http://www.w3.org/1999/xlink" id="Layer_1" x="0px" y="0px" viewBox="0 0 395 398" style="enable-background:new 0 0 395 398;" xml:space="preserve"><style type="text/css">	.st0{fill:#0D144E;}	.st1{fill:#5790F8;stroke:#5790F8;stroke-width:4;stroke-miterlimit:10;}</style><g>	<path class="st0" d="M204.1,29.3c3.5,1.6,7.2,2.8,10.3,5c12.8,8.8,15.7,26.2,7,39c-0.6,0.8-1.1,1.6-1.8,2.6c1.1,0.5,2.1,1,3,1.5  c19.9,10.4,30.7,26.6,32,49.1c0.2,2.9,0.1,5.7,0.1,8.6c-0.1,4.4-2.6,6.9-6.9,7.3c-1,0.1-2,0-3,0c-31.1,0-62.1,0-93.2,0  c-7.9,0-9.7-2.1-10-10.1c-0.5-17.2,4.5-32.4,17.1-44.3c5.1-4.9,11.4-8.5,17.4-12.9c0.1,0.1-0.2-0.5-0.6-1.1  c-11.6-16.5-4.3-38.1,14.9-44.1c0.6-0.2,1.2-0.5,1.8-0.7C196.1,29.3,200.1,29.3,204.1,29.3z M240.7,128.1  c-0.8-16-7.5-28.4-21.1-36.3c-15.3-8.9-30.9-8.2-45.6,1.7c-12,8.1-17.9,19.9-18.3,34.6C184.1,128.1,212.1,128.1,240.7,128.1z   M184.1,57.3c-0.1,7.8,6,14.3,13.8,14.4c7.8,0.1,14.2-6.1,14.3-13.9c0.1-7.9-5.9-14.2-13.8-14.4C190.7,43.3,184.2,49.5,184.1,57.3z  "></path>	<path class="st0" d="M368,363.4c-1.8,4.1-4.9,5.4-9.3,5.4c-31.6-0.1-63.2-0.1-94.8-0.1c-6.7,0-9-2.5-9.2-9.2  c-0.5-17.5,4.4-33,17.3-45.2c5.1-4.8,11.4-8.5,17.4-12.8c-5.3-6.8-7.7-15.1-5.5-24.4c1.6-6.7,5.2-12.1,10.7-16.2  c11-8.1,26.3-7.2,36.3,2.1c8.8,8.3,13.5,24.4,2.1,39.2c2.6,1.4,5.3,2.6,7.8,4.2c15.2,9.5,24.2,23.2,26.8,41c0.1,0.5,0.4,1,0.5,1.5  C368,353.7,368,358.5,368,363.4z M268.9,354.4c28.4,0,56.5,0,85,0c-0.7-15.5-7.1-27.8-20.1-35.8c-14.8-9.1-30.3-9-45.1,0.2  C275.8,326.9,269.4,338.9,268.9,354.4z M311.6,269.8c-8-0.1-14.4,6.3-14.4,14.2c0,7.6,6.3,13.9,14,13.9c7.9,0.1,14.2-6.1,14.3-13.9  C325.6,276.3,319.4,269.9,311.6,269.8z"></path>	<path class="st0" d="M368,207c-0.8,6.7-1.5,13.3-2.6,20c-0.8,5-1.9,10-3.1,14.9c-1.4,5.7-4.8,8.1-9.3,6.9  c-4.1-1.1-5.8-4.9-4.4-10.2c3-11.8,4.9-23.8,5-36c0.4-48.4-17.5-88.8-53.6-121c-11.6-10.4-24.8-18.4-39-24.8  c-3.1-1.4-4.6-3.8-4.3-7.1c0.3-3.1,2.1-5.5,5.3-6.1c1.6-0.3,3.6,0,5.1,0.7c33.2,14.9,59.1,38,77.5,69.3  c13.5,22.9,21.1,47.7,22.8,74.3c0.1,1.1,0.4,2.1,0.6,3.2C368,196.4,368,201.7,368,207z"></path>	<path class="st0" d="M63.1,301.8c-10.8-13.8-7-30.4,2.7-39.1c10.4-9.4,26.2-9.9,37.1-1c12,9.9,13.4,24.8,3.9,40.1  c4.9,3.3,10.2,6.2,14.7,10c15.5,13,21.1,30.2,20,50c-0.2,4.4-3.1,7-7.7,7c-32.6,0-65.2,0-97.8,0c-4.4,0-7.4-2.6-7.7-6.6  c-1.2-20.1,4.5-37.6,20.4-50.8C53.1,307.7,58.2,305,63.1,301.8z M127.4,354.4c-0.7-16.4-7.7-28.9-21.6-36.7  c-15.3-8.6-30.8-7.7-45.3,2.3c-11.8,8.2-17.6,19.8-18,34.4C70.8,354.4,98.8,354.4,127.4,354.4z M85,297.9  c7.9-0.1,14.1-6.4,14.1-14.2c-0.1-7.8-6.4-14-14.3-13.9c-7.8,0-14.1,6.3-14,14.1C70.8,291.7,77.2,298,85,297.9z"></path>	<path class="st0" d="M27.9,194.9C33.1,126.1,65.3,75,128.6,44.5c4.4-2.1,8.4-1,10.2,2.7c1.9,3.9,0.2,7.8-4.3,9.9  c-46.1,21.6-75.5,57.2-87.8,106.5c-6,24.2-5.5,48.6,0.5,72.8c0.3,1.2,0.7,2.3,0.9,3.5c0.9,4.2-1.2,7.9-5,8.8  c-4.1,1-7.7-1.1-8.7-5.5c-1.7-7.5-3.5-15.1-4.5-22.7C28.8,212.2,28.6,203.8,27.9,194.9z"></path>	<path class="st0" d="M198.1,368.7c-12.2,0-24.2-1.4-36.1-4c-4.7-1-7.1-4.8-5.9-9.1c0.9-3.4,2.8-5,6.6-4.7c4.9,0.4,9.9,1.1,14.8,2  c17.7,3,35.2,2.1,52.7-1.7c5.1-1.1,8.8,0.9,9.7,5.3c0.8,3.9-1.7,7.6-6.5,8.3c-11.7,1.8-23.4,3.2-35,4.8  C198.2,369.4,198.1,369,198.1,368.7z"></path></g><path class="st1" d="M144.2,264.2c-2.1-5.6-4-10.8-6.1-15.8c-0.2-0.6-1.1-1.2-1.7-1.3c-2-0.2-4,0-6-0.1c-5-0.2-8.8-3.8-8.9-8.8 c-0.1-4.3-0.1-8.7,0-13c0.1-5,3.9-8.7,8.9-8.8c2.3,0,4.6,0,6.9,0c1.7-4.1,3.2-8.1,5-12c2.1-4.5,2.2-4.5-1.4-8.1 c-5.3-5.3-5.3-10.1,0.1-15.4c2.5-2.5,5.1-5,7.7-7.4c4-3.6,9.1-3.5,12.9,0.3c1.7,1.7,3.2,3.5,4.4,4.8c5.8-2.2,11-4.1,16.2-6.2 c0.5-0.2,1.1-1,1.2-1.6c0.1-2,0-4,0.1-6c0.1-5.6,3.8-9.2,9.4-9.3c3.9-0.1,7.9-0.1,11.8,0c5.3,0.1,8.9,3.5,9.2,8.8 c0.1,2.5-0.7,5.7,0.5,7.4c1.1,1.6,4.4,1.7,6.7,2.7c3,1.3,6,2.8,9.8,4.6c1.2-1.4,2.6-3.3,4.2-4.9c3.6-3.6,9-3.8,12.7-0.3 c3.1,3,6.2,6.1,9.1,9.3c3.5,3.9,3.2,9-0.4,12.7c-1.3,1.4-2.8,2.7-4.1,4.1c-0.4,0.5-0.7,1.4-0.5,1.9c1.1,2.6,2.5,5.1,3.6,7.8 c1.1,2.6,1.8,5.2,2.8,8c2.4,0,4.9,0,7.4,0c5.3,0.1,9,3.7,9.1,9.1c0.1,4.2,0.1,8.4,0,12.5c-0.1,5.2-3.8,8.8-9,9 c-2.3,0.1-5.2-0.7-6.8,0.4c-1.5,1.1-1.7,4.1-2.6,6.2c-1.2,2.7-2.4,5.4-3.8,7.9c-0.8,1.5-0.7,2.3,0.5,3.3c1.2,1,2.2,2.2,3.3,3.3 c3.6,3.7,3.9,8.8,0.5,12.5c-3.1,3.4-6.5,6.6-10,9.7c-3.5,3.1-8.6,2.7-12-0.6c-1.4-1.3-2.8-2.7-4.1-4.1c-0.9-1-1.5-1-2.8-0.5 c-4.5,2-9.1,3.7-13.7,5.7c-0.6,0.3-1.4,1.2-1.4,1.8c-0.2,1.8,0,3.6-0.1,5.3c-0.1,5.9-3.8,9.6-9.6,9.5c-4.6,0-9.1-0.1-13.7-0.4 c-4-0.3-7.1-3.6-7.3-7.7c-0.1-2.1-0.1-4.2,0-6.3c0.1-1.3-0.4-1.8-1.6-2.3c-4.5-1.8-9-3.7-13.4-5.7c-1.1-0.5-1.8-0.6-2.6,0.3 c-1.2,1.3-2.5,2.5-3.8,3.8c-3.6,3.5-8.8,3.8-12.5,0.3c-3.3-3.1-6.4-6.3-9.4-9.6c-3.2-3.6-3-8.9,0.5-12.4 C141.1,267.1,142.9,265.5,144.2,264.2z M197.4,301.2c1.9,0,3.7,0,5.6,0c1.6,0,2.2-0.7,2.2-2.3c-0.1-3.1,0-6.2,0-9.3 c0-2.2,1.1-3.7,3.3-4.1c6.9-1.3,13.3-4,19.2-7.7c2-1.2,3.8-1,5.4,0.7c2.1,2.1,4.2,4.1,6.2,6.3c1.4,1.5,2.5,1.4,3.8,0 c2.3-2.4,4.7-4.7,7.2-6.9c1.4-1.3,1.5-2.3,0.1-3.6c-2-1.9-4-3.9-5.9-5.9c-1.9-2-2.1-3.5-0.6-5.8c3.6-5.6,6.3-11.7,7.7-18.2 c0.6-2.8,1.9-3.7,4.8-3.7c2.8,0,5.6-0.1,8.4,0c1.7,0,2.4-0.5,2.4-2.3c-0.1-3.6-0.1-7.1,0-10.7c0-1.7-0.7-2.4-2.4-2.4 c-3.2,0.1-6.3,0-9.5,0c-2.4,0-3.8-1.2-4.2-3.5c-1.2-6.7-3.9-12.8-7.4-18.6c-1.6-2.6-1.4-3.9,0.8-6.2c2-2,4-4.1,6.1-6.1 c1.2-1.1,1.4-2.1,0.1-3.3c-2.5-2.5-5-5.1-7.4-7.7c-1.2-1.3-2.1-1.2-3.3,0c-2,2.1-4,4.1-6.1,6.1c-1.9,1.9-3.4,2.1-5.6,0.7 c-5.8-3.8-12-6.3-18.7-7.9c-2.5-0.6-3.5-1.8-3.5-4.4c0-3-0.1-6,0-9.1c0-1.5-0.4-2.3-2.1-2.2c-3.6,0.1-7.1,0-10.7,0 c-1.5,0-2.2,0.6-2.2,2.2c0.1,3.2,0,6.3,0,9.5c0,2.3-1.1,3.9-3.4,4.3c-6.9,1.2-13.1,4-19,7.6c-2.3,1.4-3.7,1.2-5.6-0.6 c-2.2-2.1-4.3-4.2-6.4-6.4c-1.2-1.2-2.1-1.2-3.3,0c-2.5,2.5-5.1,5-7.7,7.4c-1.3,1.2-1.1,2.1,0.1,3.3c2,1.9,4,3.9,5.9,5.9 c2,2,2.2,3.6,0.6,6c-3.6,5.6-6.2,11.6-7.7,18c-0.6,2.8-1.8,3.7-4.7,3.8c-2.9,0-5.7,0-8.6,0c-1.5,0-2.3,0.5-2.3,2.2 c0.1,3.6,0,7.3,0,10.9c0,1.6,0.6,2.2,2.2,2.2c3.1-0.1,6.2,0,9.3,0c2.3,0,3.8,1.1,4.2,3.5c1.3,6.8,4,13.1,7.7,19c1.2,2,1,3.8-0.6,5.5 c-2.1,2.1-4.2,4.3-6.4,6.4c-1.3,1.3-1.3,2.2,0,3.5c2.5,2.4,4.9,4.9,7.3,7.5c1.3,1.4,2.3,1.2,3.5-0.1c2-2.1,4-4,6.1-6.1 c1.7-1.7,3.5-1.9,5.4-0.6c5.7,3.8,12,6.4,18.7,7.9c2.6,0.6,3.4,1.8,3.5,4.5c0,2.7,0.1,5.4,0,8.1c-0.1,2.1,0.6,3,2.8,2.9 C194.1,301.1,195.8,301.2,197.4,301.2z"></path><path class="st1" d="M163.6,232.5c0.1-18.8,16.1-34.5,34.8-34c1,0,2,0.1,3,0.4c1.7,0.5,2.8,1.7,2.7,3.6c-0.1,1.9-1.1,3.1-2.9,3.4 c-2.3,0.3-4.6,0.3-6.9,0.7c-11.6,1.8-20.6,10.3-22.5,21.1c-2,11.1,3,21.8,12.9,27.5c9.7,5.6,22.5,4.5,31.1-2.6 c9.4-7.9,12.1-20.1,6.8-31.5c-0.8-1.7-1.2-3.4,0.2-4.7c1-0.8,2.7-1.5,3.9-1.2c1.2,0.3,2.3,1.7,2.9,2.9c8.1,16.5,1,36.5-15.7,44.7 c-21.1,10.4-45.7-2.1-49.8-25.2C163.7,235.9,163.7,234.2,163.6,232.5z"></path><path class="st1" d="M220.4,207.7c-0.1,3.5-3.1,5.2-5.7,3.8c-1.4-0.7-2.7-1.6-3.9-2.5c-1.6-1.2-2.1-3.2-1.2-4.9 c0.9-1.7,2.9-2.5,4.8-1.6c1.7,0.8,3.3,1.8,4.7,2.9C219.8,206,220.1,207.2,220.4,207.7z"></path></svg>