<svg xmlns="http://www.w3.org/2000/svg" xmlns:xlink="http://www.w3.org/1999/xlink" id="Layer_1" x="0px" y="0px" viewBox="0 0 395 398" style="enable-background:new 0 0 395 398;" xml:space="preserve"><style type="text/css">	.st0{fill:#0D144E;stroke:#0D144E;stroke-width:2;stroke-miterlimit:10;}	.st1{fill:#5790F8;stroke:#5790F8;stroke-width:2;stroke-miterlimit:10;}</style><g>	<path class="st0" d="M259.6,52.7c2.5,0.4,4.9,0.8,7.4,1.1c10.2,1.2,16.9,8.6,17.1,18.9c0,1.4,0,2.9,0,4.8c2.2,0,4.2,0,6.2,0  c4.5,0,9.1-0.1,13.6,0.1c9.2,0.4,17.1,8,17.2,17.2c0.2,25.1,0.1,50.3,0.1,75.4c0,3.8-2.6,6.3-6.2,6.2c-3.7,0-6.1-2.7-6.1-7  c0-23.6,0-47.2,0-70.7c0-7-1.8-8.8-8.7-8.8c-5.2,0-10.4,0-16.1,0c0,1.3,0,2.4,0,3.5c0,20.6,0,41.2,0,61.8c0,1.1,0,2.1-0.1,3.2  c-0.3,3.4-2.9,5.8-6.1,5.8c-3.2,0-5.8-2.5-6.1-5.8c-0.1-1,0-1.9,0-2.9c0-27.3,0-54.5,0-81.8c0-4.9-2-6.9-6.8-7.6  c-25.4-3.5-47.6,3.9-68,18.8c-4.3,3.1-5.9,6.3-5.8,11.7c0.3,32.1,0.1,64.2,0.1,96.3c0,5.6-2,8.4-6,8.5c-4.1,0.1-6.3-2.9-6.3-8.6  c0-33.5,0-67.1-0.1-100.6c0-1.3-0.6-3.1-1.6-3.9c-14.3-11.8-30.2-20.3-48.9-22.2c-8-0.8-16.2-0.1-24.3,0.2c-3.6,0.2-5.6,3-5.7,6.9  c-0.1,4.8,0,9.7,0,14.5c0,42.6,0,85.2,0,127.9c0,6.7,2.5,8.8,9.1,8.2c18.4-1.8,36,1.3,52.6,9.4c4,1.9,5.4,5.3,3.7,8.7  c-1.6,3.2-5.1,4.3-8.9,2.4c-12.8-6.1-26.3-9-40.4-8.6c-2.8,0.1-5.6,0.4-8.4,0.5c-11.6,0.5-20-7.5-20-19.1c0-41.1,0-82.2,0-123.2  c0-1.2,0-2.3,0-3.7c-6.7,0-13.2-0.2-19.7,0.1c-2.5,0.1-4.3,2.1-4.8,4.8c-0.2,1.1-0.2,2.3-0.2,3.5c0,48,0,96.1,0,144.1  c0,0.4,0,0.8,0,1.2c0.1,4.8,2.4,7.1,7.2,7.1c12.7,0,25.3,0,38,0c15.2,0,30.4,0,45.5,0c1.2,0,2.3,0,3.5,0.3c3,0.7,4.9,3.1,4.8,6  c0,2.8-1.9,5.2-4.7,5.8c-1.1,0.3-2.3,0.3-3.4,0.3c-27.6,0-55.3,0-82.9,0c-12.5,0-20.2-7.7-20.2-20.3c0-48.4,0-96.8,0-145.3  c0-12.3,7.7-20,20.1-20.1c5.6,0,11.2,0,17,0c0-2,0-3.6,0-5.2c0.2-9.6,7.1-17.3,16.7-18.5c2.6-0.3,5.1-0.7,7.7-1.1  c4.6,0,9.3,0,13.9,0c1.8,0.3,3.6,0.6,5.4,0.8c19.3,2.6,36.4,10.4,51.8,22.1c3.5,2.7,3.6,2.7,7.2,0c13.4-10.2,28.1-17.5,44.7-20.9  c4-0.8,8.1-1.3,12.2-2C250.3,52.7,254.9,52.7,259.6,52.7z"></path>	<path class="st1" d="M346,276c-0.9,4.5-1.5,9.1-2.7,13.6c-9.9,37-43.2,61.5-81.5,60c-38.5-1.5-71.6-32-76-70.2  c-4.9-42.4,22.1-80.2,63.8-89c44-9.3,88.4,21.3,95.3,65.7c0.3,2.2,0.7,4.4,1.1,6.5C346,267.1,346,271.6,346,276z M333.6,267.7  c-1.4-38.7-32.7-67.9-71.3-66.5c-37,1.4-66.2,33.4-64.7,71.3c1.4,36.3,33.4,66.1,69.5,64.8C305.1,335.9,334.9,304.7,333.6,267.7z"></path>	<path class="st1" d="M259.5,290.6c0.3-12.7,6.1-22.5,15.9-30.1c5.8-4.5,9.1-9.9,8.7-17.3c-0.5-8.9-7.9-16.5-16.7-17.1  c-9.8-0.7-18.3,5.7-19.9,14.8c-0.2,1.2-0.3,2.5-0.5,3.7c-0.4,3.9-2.9,6.1-6.5,5.9c-3.5-0.2-5.8-2.8-5.8-6.6  c-0.1-13.4,9.9-26,23.2-29.4c14.2-3.6,28.9,3.1,35.3,16.1c6.5,13.1,3,28.7-8.3,38c-2.7,2.2-5.3,4.5-7.6,7.1c-4,4.5-5.8,10-5.6,16  c0,1.2,0.1,2.3-0.2,3.5c-0.6,3-3.4,5.1-6.3,4.9c-3.1-0.2-5.5-2.5-5.8-5.8C259.4,293.1,259.5,291.9,259.5,290.6z"></path>	<path class="st1" d="M265.6,324.8c-3.5,0-6.2-2.7-6.2-6.2c0-3.4,2.7-6,6.1-6.1c3.4,0,6.3,2.9,6.2,6.3  C271.7,322.2,269,324.8,265.6,324.8z"></path></g></svg>