<svg xmlns="http://www.w3.org/2000/svg" xmlns:xlink="http://www.w3.org/1999/xlink" id="Layer_1" x="0px" y="0px" viewBox="0 0 395 398" style="enable-background:new 0 0 395 398;" xml:space="preserve"><style type="text/css">	.st0{fill:#0D144E;stroke:#0D144E;stroke-width:4;stroke-miterlimit:10;}	.st1{fill:#0D144E;stroke:#0D144E;stroke-width:2;stroke-miterlimit:10;}	.st2{fill:#5790F8;stroke:#5790F8;stroke-width:3;stroke-miterlimit:10;}</style><g>	<path class="st0" d="M292.5,299.4c0.3,12.5,0.2,25,0.1,37.5c0,12.9-7.6,20.6-20.5,20.7c-61.5,0-123,0-184.6,0  c-13.1,0-20.4-7.6-20.4-21.1c0-82.2,0-164.4,0-246.7c0-9.5-0.1-19,0-28.5c0.1-12,7.7-19.8,19.6-19.8c62-0.1,124.1-0.1,186.1,0  c11.4,0,19.6,7.6,19.6,18.9c0.1,56.7,0.1,128.4,0.1,185h6.2c0.1-56,0.1-127,0-183c0-17.4-10.3-27.5-27.7-27.5  c-60.8,0-121.7,0-182.5,0c-17.7,0-27.9,10.3-27.9,28v273.1c0,17.8,10.2,28,27.9,28c60.7,0,121.4,0,182,0c18.2,0,28.2-10,28.2-28.1  v-33.4l-7.6-8.2C292,296,292.5,297.8,292.5,299.4z"></path>	<path class="st1" d="M116.2,247.2c-21.1-0.1-38.5,17.3-38.6,38.5c0,21.2,17.1,38.4,38.4,38.5c21.4,0.1,38.8-17,38.9-38.1  C154.9,264.7,137.6,247.3,116.2,247.2z M115.7,317.9c-17.6-0.3-32-15-31.7-32.6c0.2-17.7,14.7-31.7,32.5-31.7  c17.7,0.1,32.2,14.7,32,32.2C148.2,303.8,133.5,318.2,115.7,317.9z"></path>	<path class="st0" d="M207.4,269c-11.6,0-23.3,0.1-34.9-0.1c-1.8,0-3.5-2-5.3-3c1.7-1.1,3.4-3.2,5.1-3.3c23.5-0.2,46.9-0.2,70.4,0  c1.7,0,3.3,2.2,5,3.3c-1.8,1-3.5,2.9-5.3,2.9C230.7,269.2,219.1,269,207.4,269z"></path>	<path class="st0" d="M207.3,302c11.7,0,23.3-0.1,35,0.1c1.8,0,5.1,1.6,5.2,2.8c0.4,3.7-2.9,3.2-5.3,3.2c-23.1,0-46.3,0.1-69.4-0.1  c-1.8,0-5.1-1.6-5.2-2.8c-0.4-3.6,2.9-3.2,5.3-3.2C184.3,302,195.8,302,207.3,302z"></path>	<path class="st1" d="M112.1,294.4c6.3-6.7,12.1-13,18.2-19.2c1.9-1.9,3.7-6.1,7.1-2.8c3.1,3-0.5,5-2.3,6.9  c-6.3,6.8-12.8,13.5-19.1,20.4c-3,3.3-5.2,3.2-8-0.3c-4.3-5.3-9.1-10.2-13.2-15.6c-1.1-1.4-0.7-3.9-0.9-5.9  c1.9,0.7,4.5,0.8,5.7,2.1C103.9,284.5,107.8,289.4,112.1,294.4z"></path></g><g>	<path class="st2" d="M334.4,283.7c-1.5-5.5-4.8-11-8.6-15.3c-2.7-3-5.6-5.9-8.6-8.6l-0.4-0.4c-3.2-2.9-6.4-5.6-9.6-8.4  c-0.9-0.8-1.6-1.5-2.1-2.4l-9.8-9c-0.6-0.4-1.1-0.8-1.5-1.2c-10.9-10-21.7-20-32.5-29.9l-12.1-11.1c-0.2-0.2-0.5-0.4-0.7-0.6  c-2.3-2.1-2.5-3.6-1.2-6.4c7.5-15.4,8.9-31.6,5.8-48.3c-0.2-1-0.2-2.2-0.8-2.9c-1-1.1-2.4-1.9-3.6-2.8c-0.8,1.4-2.4,2.9-2.4,4.3  c0.1,3.3,1.3,6.5,1.6,9.8c3.8,35.2-20,67.7-55,75.1c-34.2,7.3-69.3-12.7-80.2-45.8c-10.3-31.2,2.1-64.9,30.1-81.5  c28.6-16.9,64.7-11.6,87.3,12.8c0.7,0.7,1.2,1.9,2,2.2c1.6,0.5,3.4,0.6,5.2,0.8c-0.2-1.6,0.3-3.8-0.5-4.8c-6.8-8.5-15.2-15-25-19.6  c-50.5-23.7-107.5,10.6-109.2,66.4c-1.2,38.6,27,69.7,62.4,75.9c20.3,3.6,39-0.6,56.7-11.9c8.8,9.5,17.7,18.9,26.5,28.4  c9.4,10,18.7,20.1,28.1,30.1c5.9,6.3,11.7,12.6,17.5,19c0,0,0,0,0,0c0.2,0.2,0.4,0.5,0.6,0.8c0,0,0,0,0,0c1.4,1.6,5,5.2,10.8,7.5  c0.1,0,0.1,0,0.2,0.1c1.7,0.6,3.4,1.1,5,1.4c0.1,0,0.2,0,0.2,0c0.7,0.2,1.5,0.3,2.2,0.3c0,0,0,0,0,0c3.7,0.3,7.1-0.4,10.3-3  c3.2-2.5,6.8-5.3,8.7-8.9C333.9,292.6,335.5,287.4,334.4,283.7z M318.2,300.6c-2.5,1.2-6.3,0.9-9.1,0c-3.2-1.1-6.5-3-8.8-5.5  c-24.4-26-48.7-52.1-73-78.3c5.2-5.7,10-11,15.2-16.7c5.6,5.1,11.4,10.3,17.1,15.6c19.7,18.2,39.5,36.4,59.2,54.6  c1.8,1.7,3.7,3.4,5.2,5.3C331.8,285.5,329.7,295.3,318.2,300.6z"></path>	<path class="st2" d="M188.2,166.1c22.7-18.5,46.6-38.1,70.6-57.8c0-0.4-0.1-0.8-0.1-1.3c-3.8,0-7.6,0-11.4,0  c-2.5,0-5.7,0.1-5.4-3.3c0.1-1.1,3.4-2.8,5.3-2.9c6.8-0.4,13.7-0.2,20.5-0.2c4,0,5.5,1.7,4.5,5.6c-1.7,6.8-3.3,13.6-5.3,20.3  c-0.5,1.6-2.7,2.7-4.1,4c-0.7-1.8-2-3.6-1.8-5.3c0.4-3.7,1.5-7.4,2.7-12.5c-7.2,5.9-13.4,10.9-19.6,15.9  c-17.7,14.5-35.4,28.8-52.9,43.5c-3.8,3.2-6.1,2.9-9.6-0.6c-6.5-6.4-13.6-12.3-21-18.9c-9.9,6.7-21.5,14.5-33.1,22.3  c-1.5,1-2.9,2.4-4.6,2.9c-1.4,0.4-3.2-0.2-4.8-0.4c0.4-1.6,0.4-3.8,1.4-4.6c5.5-4.1,11.2-7.8,16.9-11.6  c7.6-5.1,15.3-10.1,22.8-15.4c3.1-2.2,5.1-1.8,7.7,0.8C173.7,153.1,180.9,159.4,188.2,166.1z"></path></g></svg>