<svg xmlns="http://www.w3.org/2000/svg" xmlns:xlink="http://www.w3.org/1999/xlink" id="Layer_1" x="0px" y="0px" viewBox="0 0 395 398" style="enable-background:new 0 0 395 398;" xml:space="preserve"><style type="text/css">	.st0{fill:#0D144E;stroke:#0D144E;stroke-miterlimit:10;}	.st1{fill:#5790F8;}</style><g>	<path class="st0" d="M334.5,140.7c-10.6-2.9-21.1-2.9-32.1-0.1c0.2-1.6,0.5-2.8,0.5-4c0-5.7,0.6-11.5-0.2-17.1  c-2.1-14.8-10.3-26.3-21.1-36.1c-12.9-11.7-28-19.3-44.5-24.6c-32.7-10.5-64.4-8.8-94.6,8.3c-16.4,9.3-29.2,22.1-35,40.6  c-3.4,10.7-3.4,21.6-0.3,32.9c-9.6-2.2-18.7-3-27.8-1.5c-24.9,4-44.7,15.4-55.8,38.9c-7.2,15.3-6.2,30.6,3.9,44.2  c11.3,15.4,27,24,46.1,26.2c5.2,0.6,10.5,0.6,15.8,0.9v-12.6c-19,4.1-46.3-8.4-54.8-25.5c-4.5-9-4.9-18.3-0.5-27.4  c2.3-4.8,5.1-9.6,8.7-13.4c17.3-18,38.4-23.5,62.5-17.8c3.2,0.8,6.2,2.6,9.2,4.1c2.6,1.3,5.1,1.2,7.3-0.8c2.2-2,2.6-4.6,1.2-7.2  c-12.9-24-5.2-52.3,21.8-69.1c28-17.4,57.7-19.6,88.7-9.7c15,4.8,28.9,11.7,40.5,22.5c11.9,11.1,19.2,24.2,17.2,41.1  c-0.6,4.7-2.3,9.4-4,13.9c-1.2,3.2-2.1,6,0.7,8.6c2.8,2.6,5.6,1.6,8.6,0.1c27.6-14.6,61.4,0.3,68.5,30.1  c4.4,18.3-3.8,35.1-21.5,44.4c-10.3,5.4-23.2,7.6-36.3,6.3v12.2c3.8,0,7.4,0.1,10.9,0c15.4-0.5,29.5-4.9,41.4-14.9  c11.8-9.8,18.7-22.3,18.6-37.9C378,170.2,360.3,147.8,334.5,140.7z"></path></g><g>	<path class="st1" d="M306.7,236.4C306.6,236.4,306.7,236.4,306.7,236.4c-0.3-2.2-0.3-4.2-0.8-6.1c-1.6-6.9-7.2-11.3-14.3-11.5  c-4.2-0.1-8.5,0-12.6,0c-2.3-5.5-4.4-10.8-6.9-16.8c2.7-2.5,5.7-5.1,8.5-7.9c6.5-6.6,6.5-15.2,0-21.9c-3.8-3.9-7.7-7.8-11.6-11.6  c-6.6-6.3-15.1-6.2-21.7,0.1c-2.8,2.7-5.2,6.9-8.4,7.6c-2.9,0.7-6.7-2.4-10.2-3.7c-2-0.8-4-1.4-6.2-2.2c0-4,0-8,0-12  c-0.1-9-6.3-15.3-15.3-15.4c-5.9-0.1-11.7-0.1-17.6,0c-8.6,0.1-14.8,6.4-15,14.9c-0.1,4.1,0,8.2,0,12.1c-5.1,2.2-9.8,4.4-14.6,6.3  c-0.8,0.3-2.4-0.1-3.1-0.7c-2.6-2.3-4.9-4.9-7.5-7.3c-6.2-5.8-14.7-5.8-20.9,0c-4.2,4-8.4,8.2-12.4,12.4c-6,6.3-5.9,14.8,0.1,21.1  c2.2,2.3,4.5,4.7,6.9,6.9c1.6,1.4,1.7,2.5,0.8,4.5c-2.1,4.4-3.8,8.9-5.8,13.7c-3.5,0-7.2,0-10.9,0c-10.1,0-16,5.7-16.4,15.8  c0,0.5-0.1,1-0.1,1.5c0,0-0.1,0-0.1,0V249c0,0,0.1,0,0.1,0c0,0.7,0.1,1.3,0.1,1.9c0.3,10.1,6.2,15.8,16.4,15.8  c3.1,0,6.2-0.1,9.4,0.1c1,0.1,2.3,0.9,2.7,1.8c2.1,4.6,3.9,9.4,6,14.6c-2.8,2.6-5.8,5.4-8.7,8.3c-6.4,6.5-6.4,15.1,0,21.7  c3.9,4,7.9,8,11.9,11.9c6.4,6.2,15,6.1,21.4-0.1c2.4-2.3,4.8-4.7,7.1-7.2c1.3-1.4,2.3-1.7,4.1-0.9c3.7,1.8,7.6,3.1,11.3,4.9  c1,0.5,2.1,2,2.2,3c0.3,3.7,0,7.5,0.1,11.2c0.3,8,6.4,14.2,14.4,14.4c6.4,0.2,12.7,0.2,19.1,0c8-0.2,14.1-6.4,14.4-14.4  c0.1-2.7,0.4-5.5,0-8.2c-0.6-4.3,1-6.2,5.1-7.3c3.8-1,7.8-4.6,10.9-3.9c3.4,0.8,6,5.3,8.9,8.1c6.4,6.2,14.9,6.3,21.4,0.2  c4.1-3.9,8-7.9,11.9-11.9c6.5-6.7,6.4-15.2-0.2-21.9c-2.9-2.9-6-5.5-8.6-7.9c2.2-5.4,4.2-9.7,5.7-14.2c0.7-2.1,1.7-2.7,3.8-2.6  c3.5,0.1,7,0.1,10.5,0c8-0.3,14.1-6.3,14.5-14.3c0.1-1.2,0.2-1.6,0.3-3c0.1,0,0-0.1,0-0.1L306.7,236.4z M289.5,254.8  c-4.9-0.2-9.7,0-14.6-0.1c-3.8,0-5.7,1.8-7.1,5.3c-2.5,6.7-5.4,13.4-8.4,19.9c-1.5,3.3-1.3,5.9,1.2,8.5c3.6,3.6,7.2,7.3,10.9,10.8  c2.3,2.2,2.3,4.1,0,6.3c-3.4,3.3-6.8,6.6-10,10.1c-2.5,2.7-4.5,2.4-6.8-0.2c-3.3-3.6-6.9-6.9-10.3-10.4c-2.7-2.8-5.5-3-9.1-1.3  c-6.3,2.9-12.7,5.5-19.3,7.9c-3.6,1.3-5.6,3.3-5.5,7.3c0.1,5.1,0,10.2,0.1,15.3c0.1,3-1.3,4.3-4.3,4.2c-5.1-0.1-10.2-0.1-15.3,0  c-3.2,0.1-4.5-1.4-4.4-4.5c0.1-5-0.1-10,0.1-15c0.1-4-1.8-6-5.5-7.4c-6.6-2.5-13.2-5.2-19.6-8.1c-3.3-1.5-5.9-1.5-8.5,1.1  c-3.7,3.7-7.5,7.4-11.1,11.1c-2.1,2.2-3.9,2.2-6,0c-3.5-3.6-7-7.1-10.6-10.6c-2.2-2.1-2-4,0.1-6c3.7-3.5,7.2-7.2,10.9-10.8  c2.7-2.7,2.8-5.3,1.2-8.8c-3-6.4-5.8-12.9-8.2-19.6c-1.4-3.7-3.5-5.5-7.4-5.4c-5,0.1-10,0-15,0c-3,0.1-4.3-1.3-4.2-4.3  c0.1-5.2,0.1-10.5,0-15.7c0-2.9,1.3-4,4.1-4c5,0.1,10,0,15,0c3.9,0.1,6-1.7,7.3-5.5c2.4-6.7,5.1-13.2,8.1-19.6  c1.7-3.6,1.6-6.3-1.2-9.1c-3.5-3.4-6.8-6.9-10.3-10.3c-2.3-2.1-2.5-4-0.2-6.3c3.6-3.4,7.1-7,10.6-10.6c2-2,3.7-2.1,5.7,0  c3.5,3.6,7.1,7,10.6,10.6c2.7,2.8,5.5,3,9.1,1.3c6.4-3,12.9-5.7,19.6-8.2c4-1.5,5.5-3,5.6-7.3c0-4.9,0.1-9.7,0-14.6  c-0.1-3.2,1.3-4.5,4.5-4.4c5,0.1,10,0.1,15,0c3.4-0.1,4.8,1.4,4.6,4.7c-0.1,2.4,0,4.7,0,7.1c0.1,12.5-1.7,12.4,11.6,16.3  c4.7,1.4,9.1,3.9,13.5,6.3c3.5,1.9,6.3,1.7,9.1-1.1c3.5-3.6,7.1-7,10.6-10.6c2-2,3.7-2.2,5.7-0.1c3.6,3.7,7.2,7.3,10.8,10.8  c2.1,2,2,3.8,0,5.7c-3.5,3.4-6.9,6.8-10.3,10.3c-3.5,3.5-3.4,5.2-1.4,9.6c2.9,6.3,5.6,12.7,7.9,19.3c1.3,3.8,3.3,5.6,7.3,5.5  c4.9-0.1,9.7,0.1,14.6-0.1c3.4-0.1,4.7,1.4,4.6,4.7c-0.1,4.9-0.2,9.7,0,14.6C294.6,253.7,293,255,289.5,254.8z"></path>	<path class="st1" d="M198.7,188.9c29.3,0,53.7,24.1,53.8,53.5c0.1,29.9-23.9,54.3-53.6,54.3c-29.9,0.1-54-24-54.1-53.8  C144.6,213.1,168.8,189,198.7,188.9z M156.7,242.7c-0.1,23,18.8,42,41.7,42c23.3,0,42.1-18.8,42.1-42c0-22.8-18.8-41.7-41.5-41.8  C175.6,200.8,156.7,219.5,156.7,242.7z"></path></g></svg>