<svg xmlns="http://www.w3.org/2000/svg" xmlns:xlink="http://www.w3.org/1999/xlink" id="Layer_1" x="0px" y="0px" viewBox="0 0 395 398" style="enable-background:new 0 0 395 398;" xml:space="preserve"><style type="text/css">	.st0{fill:#0D144E;stroke:#0D144E;stroke-miterlimit:10;}	.st1{fill:#5790F8;}</style><g>	<path class="st0" d="M317.5,237.1c14.8,0,29,0,43.5,0c0,3.6,0,7,0,10.6c-108.9,0-217.9,0-327,0c0-3.4,0-6.9,0-10.6  c14.4,0,28.6,0,43.4,0c0-1.4,0-2.6,0-3.8c0-14.5,0-29.1,0-43.6c0-5.4,1.8-7.2,7.1-7.2c13.4,0,26.8,0,40.2,0c5.4,0,7.2,1.8,7.2,7.1  c0,14.4,0,28.9,0,43.3c0,1.2,0,2.5,0,3.9c12.8,0,25.3,0,38.2,0c0-1.3,0-2.5,0-3.7c0-27,0-54.1,0-81.1c0-6,1.6-7.7,7.7-7.7  c13.3,0,26.6,0,39.9,0c5.1,0,7,1.9,7,7c0,27,0,54.1,0,81.1c0,1.4,0,2.7,0,4.4c12.7,0,25.2,0,38.2,0c0-1.2,0-2.6,0-3.9  c0-39.7,0-79.3,0-119c0-6.2,1.6-7.8,7.9-7.8c13.2,0,26.4,0,39.6,0c5.3,0,7.1,1.8,7.1,7.2c0,39.8,0,79.6,0,119.3  C317.5,234,317.5,235.3,317.5,237.1z M274.1,117.2c0,40.1,0,79.9,0,119.7c10.9,0,21.5,0,32.3,0c0-40,0-79.8,0-119.7  C295.6,117.2,285,117.2,274.1,117.2z M213.7,155.4c-10.9,0-21.6,0-32.4,0c0,27.3,0,54.4,0,81.4c10.9,0,21.7,0,32.4,0  C213.7,209.5,213.7,182.5,213.7,155.4z M88.6,193.6c0,14.6,0,29,0,43.2c11,0,21.7,0,32.3,0c0-14.5,0-28.8,0-43.2  C110.1,193.6,99.5,193.6,88.6,193.6z"></path>	<path class="st1" d="M279,259c3.7,0,7,0,10.5,0c0,2.6-0.4,5.1,0.1,7.5c0.4,1.7,1.4,3.9,2.8,4.8c8.1,4.8,10.7,11.8,7.1,20.5  c-2.2,5.4-4.4,10.7-6.6,16c-3.5,8.5-10.5,11.8-19.3,9.3c-2.5-0.7-4.3-0.2-6.1,1.7c-3.5,3.6-7.2,7-10.9,10.3  c-1.9,1.7-2.3,3.4-1.7,5.7c2.5,9.2-0.7,15.8-9.4,19.5c-5.5,2.3-11.1,4.6-16.7,6.9c-7.6,3-15,0.5-18.8-6.8c-1.4-2.7-3.2-3.7-6.2-3.5  c-4.5,0.2-9.1,0.2-13.6,0c-2.6-0.1-4.2,0.8-5.5,3.1c-4.3,7.8-11.5,10.3-19.6,7.1c-5.7-2.3-11.3-4.6-17-7  c-8.1-3.4-11.5-10.4-9.1-18.8c0.8-2.7,0.2-4.5-1.8-6.3c-3.5-3.2-6.8-6.7-10.1-10.1c-1.7-1.8-3.4-2.3-5.8-1.6  c-9.1,2.5-15.8-0.7-19.5-9.4c-2.3-5.5-4.6-11.1-6.9-16.7c-3.2-8-0.6-15.2,7-19.3c2.5-1.3,3.4-3,3-5.8c-0.3-2.2-0.3-4.5-0.4-7  c3.7,0,7.1,0,10.4,0c2.8,10.8-0.3,18.5-8,22c-2.7,1.2-3.3,3.4-2.3,5.9c2.3,5.8,4.8,11.5,7.2,17.3c1.1,2.6,2.9,3.5,5.7,2.6  c7.1-2.3,12.8-0.4,17.7,5.2c2.8,3.2,6,6.2,9.2,9.1c5,4.6,6.9,10,4.8,16.6c-1.1,3.2-0.1,5.2,3,6.5c5.5,2.2,10.9,4.5,16.4,6.7  c3,1.2,4.9,0.5,6.4-2.4c3-6,8-8.7,14.7-8.5c4.9,0.2,9.8,0.1,14.6,0c6.7-0.2,11.7,2.5,14.7,8.5c1.5,3,3.5,3.8,6.6,2.5  c5.4-2.3,10.9-4.5,16.4-6.7c3.5-1.5,4.1-2.8,3-6.4c-1.9-6.4-0.5-11.8,4.4-16.4c3.5-3.4,7-6.8,10.3-10.4c4.6-4.9,10-6.3,16.4-4.4  c3.6,1.1,4.9,0.5,6.4-3c2.3-5.4,4.5-10.9,6.8-16.3c1.2-2.8,0.6-4.8-2.1-6.2c-6.7-3.3-9.4-8.8-8.8-16.2  C278.8,263.1,278.9,261.1,279,259z"></path>	<path class="st0" d="M62.2,163.5c-1.4-3.5-2.7-6.6-4.1-10.1C142.5,119.6,226.8,85.8,312,51.6c-6.7-2-12.4-3.7-18.6-5.5  c1.1-3.7,2.1-7.2,3.2-10.9C307.9,38.7,319,42,330,45.5c3.4,1.1,5,4.3,3.4,7.3c-5.6,10.4-11.5,20.6-17.3,31  c-3.3-1.9-6.2-3.6-9.5-5.5c3-5.4,5.9-10.6,9.3-16.8C230.9,95.8,146.8,129.6,62.2,163.5z"></path>	<path class="st1" d="M246.8,259.1c3.6,0,7,0,10.7,0c-0.9,21.9-9.9,39.3-28.5,50.7c-21.2,12.9-43.1,12.7-64.1-0.6  c-18.1-11.4-26.8-28.6-27.6-50.1c3.8,0,7.1,0,10.8,0c0.7,16.3,7.2,29.8,20.5,39.6c9.5,7,20.3,10,32.1,9.3  C223.1,306.5,245.5,288.9,246.8,259.1z"></path></g></svg>