<svg xmlns="http://www.w3.org/2000/svg" xmlns:xlink="http://www.w3.org/1999/xlink" id="Layer_1" x="0px" y="0px" viewBox="0 0 395 398" style="enable-background:new 0 0 395 398;" xml:space="preserve"><style type="text/css">	.st0{fill:#0D144E;stroke:#0D144E;stroke-width:2;stroke-miterlimit:10;}	.st1{fill:none;stroke:#5790F8;stroke-width:19;stroke-miterlimit:10;}</style><g>	<path class="st0" d="M339.4,285c-1.3-1.2-2.6-2.3-3.9-3.5c-19.7-18.6-31.3-41.2-33-68.3c-0.8-12.6-0.6-25.4-0.6-38  c0-2.5-2.3-4.3-4.8-3.8c-2.2,0.5-4.5,0.9-6.8,1.2c-1.9,0.3-3.4,1.9-3.4,3.8c0,8.6,0,17.2,0,25.8c0,37,13.5,68,41.2,92.7  c3.7,3.3,4.6,6.1,3.3,9.5c-1.6,4-5,4.9-8.9,4.9c-26.9-0.1-53.7-0.1-80.6-0.2c-15,0-30,0-45,0v0.2c-41.3,0-82.5,0-123.8,0  c-1.2,0-2.3,0-3.5,0c-3.4-0.2-6.1-1.6-7.4-5c-1.3-3.4,0-6.1,2.4-8.6c5.6-5.7,11.5-11.1,16.5-17.3c16.4-20.5,24.9-44.2,25.5-70.4  c0.4-17,0-34,0.2-51c0.5-39.6,28.5-75.1,66.8-85c13.3-3.4,26.6-3.8,39.1-1.6c1.7,0.3,3.3-0.5,4.1-2c1.3-2.5,2.7-4.9,4.3-7.3  c1.5-2.2,0.4-5.3-2.2-6c-52-13.5-88.2,22-89.2,22.9c0,0,0,0,0,0c-22.8,18.9-37.3,47.4-37.9,77.6c-0.3,15.8,0,31.7-0.1,47.5  c-0.2,32-12,58.8-36,80.2c-1.7,1.5-3.3,3-4.6,4.8c-5.2,7.3-6.1,15.2-2.2,23.2c4,8.2,10.9,12.6,20,12.6c23.9,0.2,47.9,0.1,71.8,0.1  h0.8c1.8,0,3.4,1.2,3.8,3c0,0,0,0,0,0c4.9,20.8,17.7,34.1,38.1,40.3c2.2,0.7,4.4,1.1,6.6,1.6c0.3,0.1,0.6,0.1,0.9,0.1h11.5  c0.5,0,1-0.1,1.4-0.3c0.4-0.2,0.8-0.3,1.2-0.4c22.2-4.4,36.5-17.5,42.7-39.3c0.2-0.7,0.4-1.4,0.5-2.1c0.4-1.7,2-3,3.8-3h0.7  c23.7,0,47.4,0,71.1,0c9.9,0,18-5.5,21.5-14.3C348.9,301.2,346.6,291.8,339.4,285z M197,354.4c-15.7,0.2-31.2-11.1-35.5-24.9  c-0.8-2.5,1.1-5.1,3.7-5.1h63.3c2.6,0,4.5,2.5,3.7,5C228.2,342.9,212.8,354.2,197,354.4z"></path></g><circle class="st1" cx="283.3" cy="97.9" r="59.7"></circle></svg>