<svg xmlns="http://www.w3.org/2000/svg" xmlns:xlink="http://www.w3.org/1999/xlink" id="Layer_1" x="0px" y="0px" viewBox="0 0 395 398" style="enable-background:new 0 0 395 398;" xml:space="preserve"><style type="text/css">	.st0{fill:#0D144E;}	.st1{fill:#5790F8;}</style><g>	<path class="st0" d="M203.6,165.5c14-10.9,27.3-21.2,40.5-31.6c0.7-0.6,1.3-1.8,1.3-2.8c0.1-8-0.1-16,0.1-23.9  c0.1-2.5-1.6-2.7-3.1-3.5c-7.9-3.9-12.6-12.1-11.9-20.7c0.8-8.7,6.9-16,15.4-18.3c10.4-2.8,21.1,2.6,25,12.5  c4,10.1-0.3,21.7-10.2,26.3c-2.8,1.3-3.4,2.8-3.4,5.6c0.2,8.2-0.1,16.5,0.1,24.7c0.1,3.6-1.3,6-4.1,8.2  c-15.7,12.1-31.3,24.3-47,36.4c-2.1,1.6-2.9,3.2-2.9,5.9c0.1,21.3,0,42.7,0,64c0,0.2-0.1,0.5-0.2,1c-3.7,0-7.5,0-11.8,0  c0-1.4,0-2.8,0-4.3c0-29.7-0.1-59.4,0.1-89.1c0-3.2-0.8-4.8-3.8-6.1c-15-6.4-29.8-13.3-44.8-19.7c-3.9-1.7-5.5-4.1-5.4-8.3  c0.2-6.6,0-13.2,0.1-19.8c0-2.1-0.5-3.2-2.6-4.2c-9.4-4.3-14.1-13.9-11.8-23.7c2.3-9.9,10.8-16.4,21-16.2c9.9,0.2,18.1,7.4,20,17.4  c1.7,9-3.2,18.4-11.9,22.4c-2.2,1-2.9,2.1-2.8,4.5c0.2,4.6,0.3,9.2,0,13.8c-0.2,2.9,0.8,4.4,3.5,5.5c14.9,6.4,29.6,13.2,44.5,19.5  c4.4,1.9,6.4,4.6,6.1,9.4C203.3,155.2,203.6,159.9,203.6,165.5z M143.6,87.8c4.9,0.1,9.1-4,9.1-8.9c0-4.8-3.9-8.8-8.6-9  c-4.9-0.2-9.1,3.8-9.3,8.7C134.6,83.6,138.6,87.8,143.6,87.8z M251.4,93.8c4.9,0.1,9-4.1,9-9c0-4.8-3.9-8.8-8.7-8.9  c-4.9-0.1-9.1,3.9-9.2,8.8C242.4,89.6,246.5,93.8,251.4,93.8z"></path>	<path class="st1" d="M283.2,355.1c16.3-3.3,32.6-7.1,47.4-15.1c3.6-1.9,6.9-4.5,9.9-7.3c3.8-3.6,3.9-7.2,0-10.7  c-3.8-3.4-8.2-6.6-12.8-8.8c-16.6-8.2-34.6-11.8-52.6-15c-5.3-0.9-10.6-1.6-16.3-2.5c0.5-3.8,0.9-7.6,1.5-11.9  c6.8,1.1,13.4,2,20,3.2c17.3,3.1,34.5,6.9,50.5,14.4c6.3,3,12.5,6.9,17.7,11.6c9.4,8.5,9.2,20,0.2,29c-8.7,8.7-19.9,13.2-31.3,16.8  c-9.6,3-19.5,5.1-29.2,7.6c-0.8,0.2-1.6,0.5-3.1,0.9c3.4,1.9,6.3,3.6,9.5,5.4c-1.9,3.5-3.8,6.8-5.8,10.4c-9-5-17.9-9.8-26.5-14.9  c-3.5-2.1-3.7-6.2-0.7-9.3c6.7-7,13.5-14,20.3-20.9c3.1,3.3,5.8,6,8.8,9.1c-2.4,2.1-5.1,4.5-7.9,7  C282.8,354.4,283,354.7,283.2,355.1z"></path>	<path class="st1" d="M110.2,287.6c-3.4-2-6.3-3.6-9.5-5.5c1.9-3.4,3.7-6.7,5.8-10.4c9,5,17.9,9.8,26.5,14.9  c3.5,2.1,3.7,6.2,0.7,9.3c-6.7,7-13.5,14-20.3,20.9c-3.2-3.3-5.8-6-8.8-9.1c2.4-2.1,5.2-4.6,7.9-7c-0.2-0.4-0.5-0.9-0.7-1.3  c-9.5,2.5-19.1,4.5-28.4,7.7c-8.2,2.8-16.3,6.3-23.7,10.8c-10.6,6.3-10.3,12.5,0,19.4c11.7,7.8,25,11.8,38.5,14.8  c12.5,2.8,25.1,4.9,38.2,7.5c-0.4,3.4-0.9,7.2-1.4,11.4c-6.7-1-13.2-1.9-19.6-3.1c-16.7-3-33.3-6.5-48.8-13.6  C59.6,351.1,52.7,347,47,342c-9.8-8.6-9.5-20.2-0.2-29.5c8.1-8,18.4-12.4,28.9-15.8c10.2-3.2,20.6-5.6,31-8.3  C107.7,288.3,108.7,288,110.2,287.6z"></path>	<path class="st0" d="M155.7,261.3c0-1.5,0-2.9,0-4.2c0-20.1,0-40.2,0.1-60.2c0-2.6-0.7-4-3.1-5.1c-3.9-1.6-7.6-3.7-11.5-5.7  c-6.8,6.1-14.4,8.4-23.1,5c-9.8-3.8-15.1-14.3-12.5-24.7c2.6-10,12.3-16.8,22.6-15.6c10.5,1.2,18.7,10.2,18.5,20.6  c-0.1,3.1,0.8,4.7,3.6,5.9c4.6,2,8.9,4.4,13.4,6.6c2.6,1.3,4.1,3.2,4.1,6.2c0,23.4,0,46.9-0.1,70.3c0,0.2-0.2,0.4-0.3,0.9  C163.7,261.3,160,261.3,155.7,261.3z M125.9,180.7c4.9-0.1,8.9-4.3,8.8-9.2c-0.1-4.8-4.2-8.7-8.9-8.7c-4.9,0-9,4.1-9,9  C116.8,176.7,120.9,180.7,125.9,180.7z"></path>	<path class="st0" d="M203.6,123.6c-4.2,0-7.9,0-12,0c0-1.5,0-2.8,0-4.2c0-19.6,0-39.1,0-58.7c0-2.4-0.3-3.9-3-5.1  c-9-4-13.6-13.7-11.5-23.2c2.2-9.8,10.5-16.5,20.4-16.5c10,0,18.2,6.6,20.5,16.4c2.2,9.4-2.4,19.2-11.3,23.3  c-2.5,1.1-3.2,2.4-3.1,5c0.1,19.6,0.1,39.1,0.1,58.7C203.6,120.6,203.6,122,203.6,123.6z M206.5,37c0-4.9-4.1-9.1-9-9  c-4.9,0-9,4.1-8.9,9.1c0,4.8,4,8.7,8.8,8.8C202.3,46,206.5,42,206.5,37z"></path>	<path class="st0" d="M239.5,261.3c-4,0-7.7,0-12,0c0-1.2,0-2.4,0-3.6c0-14,0.1-27.9-0.1-41.9c0-3.6,0.9-6.3,3.9-8.3  c1.8-1.2,3.2-2.8,5-3.9c4.8-3.2,7.7-6.2,6.4-13.3c-1.7-9.2,5.4-17.9,14.3-20.7c9-2.8,18.8,0.7,23.9,8.6c5.1,7.9,4.3,18.3-1.9,25.3  c-6.3,7.1-16.3,9.1-24.9,4.7c-2.1-1.1-3.2-0.7-5.2,0.4c-7.9,4.5-10.4,10.9-9.7,20C240.2,239.5,239.5,250.3,239.5,261.3z   M263.3,180.7c-4.9,0.1-8.9,4.3-8.8,9.2c0.2,4.8,4.2,8.7,9,8.7c4.9,0,9-4.1,9-9.1C272.4,184.6,268.2,180.6,263.3,180.7z"></path></g></svg>