<svg xmlns="http://www.w3.org/2000/svg" xmlns:xlink="http://www.w3.org/1999/xlink" id="Layer_1" x="0px" y="0px" viewBox="0 0 395 398" style="enable-background:new 0 0 395 398;" xml:space="preserve"><style type="text/css">	.st0{fill:#0D144E;stroke:#0D144E;stroke-miterlimit:10;}	.st1{fill:#5790F8;}</style><g>	<path class="st0" d="M36.4,271.4c1-5,1.8-10.1,3.2-14.9c5.1-17.7,15.4-31.9,30.5-42.5c1.7-1.2,2.5-2.4,2.5-4.6  c-0.1-7.1-0.1-14.2,0-21.3c0-0.8,0-1.7,0-2.5c0.2-3.3,2.1-5.3,5-5.3c2.6,0,4.5,2.1,4.6,5.3c0.1,5.6,0,11.3,0.1,17  c0,1.2,0,2.5,0,4.2c10.7-4.5,21.5-7.1,32.8-7c11.2,0.1,21.9,2.3,32.6,6.9c0-1.8,0-3,0-4.3c0-27.7,0.1-55.5-0.1-83.2  c-0.1-7.3,3.3-13.3,12.8-12.6c5.2,0.3,10.5-0.1,15.7-0.2c0.2,0,0.3-0.2,0.8-0.5c-0.7-0.8-1.3-1.6-2-2.2  C156,84.8,137.3,66,118.6,47.3c-3.4-3.4-4-3.4-7.3,0c-18.8,18.8-37.6,37.6-56.4,56.3c-0.7,0.7-1.4,1.5-2.7,2.9c2.6,0,4.5,0,6.4,0  c4.2,0,8.4,0,12.6,0c7.3,0,11,3.7,11,11.1c0,11.4,0,22.8,0,34.2c0,3.7,0.1,7.3-0.1,11c-0.1,3-2.1,5-4.6,5c-2.8,0-4.7-2-4.9-5  c-0.1-0.9,0-1.9,0-2.8c0-13.2,0-26.4,0-39.6c0-1.3,0-2.5,0-4.1c-1.3-0.1-2.4-0.1-3.5-0.1c-5.5,0-11.1,0.1-16.6,0  c-4.4,0-7.8-1.8-9.5-6c-1.7-4.2-0.4-7.7,2.7-10.8c20-20,39.9-40,60-59.9c1.9-1.8,4.5-2.8,6.8-4.2c1.7,0,3.3,0,5,0  c3,2.1,6.3,3.7,8.8,6.2c19.2,19,38.2,38.1,57.4,57.2c2.6,2.6,4.5,5.3,4,9.1c-0.7,4.9-4.5,8.2-9.8,8.3c-5.5,0.1-11.1,0-16.6,0  c-1.1,0-2.2,0-3.8,0c0,1.5,0,2.6,0,3.7c0,29.7,0,59.5,0,89.2c0,2.4,0.7,3.8,2.7,5.1c26.2,18.3,38.6,50.5,31.5,81.6  c-6.9,30.8-32.2,54.6-63.5,59.9c-44.1,7.5-86-23.8-91-68c-0.1-0.8-0.4-1.6-0.6-2.4C36.4,280.6,36.4,276,36.4,271.4z M115.1,209.2  c-38.1-0.1-69.2,30.9-69.3,68.9c-0.1,38,30.8,69,68.7,69.2c38.1,0.2,69.3-30.8,69.4-68.8C184.1,240.5,153.1,209.3,115.1,209.2z"></path>	<path class="st1" d="M286.4,35.2c6.5,1.5,13.1,2.6,19.4,4.7c12.2,4.1,22.6,11.2,31.4,20.7c2.9,3.2,3.3,5.7,1,7.9  c-2.2,2.2-4.9,1.7-7.8-1.4c-14.5-15.3-32.3-22.8-53.3-22.3c-33.5,0.7-62.6,27.5-66.1,60.9c-4,37.5,20.9,70.3,57.9,76.5  c38,6.3,75-21.9,79.2-60.3c1.3-12.1-0.3-23.8-5-35c-1.5-3.6-1-6.1,1.5-7.4c2.6-1.3,5.3-0.3,6.7,2.7c5.4,12.2,7.7,25,6.4,38.2  c-2.4,24.7-13.9,44.1-34.1,58.5c-0.8,0.6-1.6,2-1.6,3c-0.1,30.8-0.1,61.5-0.1,92.3c0,0.5,0.1,1,0.2,1.9c5.8,0,11.5,0,17.2,0  c1.8,0,3.6,0,5.3,0.3c7,1.5,9.8,9.3,5.4,14.9c-0.6,0.8-1.4,1.6-2.1,2.3c-19.4,19.4-38.8,38.8-58.2,58.2c-6.9,6.9-13.8,6.9-20.7,0  c-19.5-19.5-39.1-39.1-58.6-58.6c-3.2-3.1-4.7-6.6-3.1-11c1.4-3.9,4.9-6.1,9.7-6.1c6.5-0.1,13,0,19.8,0c0.1-1.3,0.2-2.4,0.2-3.5  c0-29.9,0-59.9,0-89.8c0-2.1-0.7-3.4-2.4-4.6c-26.4-18.3-38.8-50.4-31.7-81.8c6.9-30.7,32.1-54.4,63.5-59.8c2-0.4,4.1-0.8,6.1-1.1  C277.2,35.2,281.8,35.2,286.4,35.2z M217.3,285.4c-0.4,0.5-0.7,0.9-1.1,1.4c1,0.5,2.3,0.8,3.1,1.6c18.9,18.7,37.7,37.5,56.5,56.3  c3.4,3.4,4.1,3.4,7.6-0.1c18.8-18.8,37.6-37.6,56.4-56.4c0.7-0.7,1.3-1.5,2.6-2.8c-6.5,0-12.2,0-17.9,0c-8.8,0-12.1-3.3-12.1-12.1  c0-27.8,0-55.7,0-83.5c0-1.3,0-2.7,0-4.4c-22,9.3-43.6,9.3-65.7-0.2c0,1.7,0,3.1,0,4.4c0,28.1,0,56.1,0,84.2  c0,8.3-3.4,11.7-11.6,11.7C229.1,285.4,223.2,285.4,217.3,285.4z"></path>	<path class="st1" d="M238.2,135.5c-6.2-0.3-11.1-2-15-5.9c-2.5-2.5-2.7-5.1-0.6-7.2c1.9-1.9,4.6-1.9,7,0.2c2.8,2.5,6,4,9.7,3  c1.5-0.4,3.2-1.8,3.7-3.2c0.3-0.8-1.4-2.8-2.7-3.5c-2.4-1.3-5.2-2.1-7.8-3.2c-7.1-2.8-10.3-7.5-9.1-13.4  c1.2-6.4,6.9-10.6,14.1-10.5c4.4,0.1,8.4,1.6,11.9,4.2c2.4,1.8,3,4.3,1.5,6.6c-1.5,2.3-4,2.5-6.9,1.2c-2.6-1.1-5.4-1.9-8.2-2.2  c-0.9-0.1-2.1,1.6-3.1,2.4c0.8,0.8,1.5,1.9,2.5,2.4c2.6,1.2,5.4,2.2,8.1,3.3c7.3,3.1,10.7,8.7,9.2,15.1  C251,131.1,244.4,135.7,238.2,135.5z"></path>	<path class="st1" d="M268.3,118.5c0,2.6,0,4.8,0,7.4c2.8,0,5.5,0,8.2,0c3.7,0.1,5.9,1.8,5.9,4.7c0.1,2.9-2.1,4.7-5.8,4.8  c-4.2,0-8.4,0.1-12.6,0c-3.7-0.1-5.3-1.8-5.4-5.5c0-10.8,0-21.6,0-32.3c0-3.5,1.7-5.2,5.2-5.3c4.5-0.1,9-0.1,13.5,0  c3,0.1,4.9,2,5,4.6c0,2.5-1.9,4.6-4.8,4.8c-3,0.2-6,0-9.2,0c0,2.6,0,4.8,0,7.5c2.6,0,5.2-0.1,7.8,0c3.3,0.1,5.2,1.9,5.1,4.7  c0,2.6-1.8,4.4-4.9,4.7c-1.4,0.1-2.7,0.1-4.1,0.1C271.1,118.5,269.9,118.5,268.3,118.5z"></path>	<path class="st1" d="M298.3,126c2.3,0,4.4,0,6.4,0c3.5,0.1,5.5,1.8,5.5,4.7c0,2.8-2.1,4.7-5.5,4.7c-3.7,0.1-7.3,0-11-0.1  c-3-0.1-4.8-1.7-4.8-4.6c-0.1-11.3-0.1-22.6,0-33.9c0-2.9,2.1-4.9,4.7-4.9c2.7,0,4.7,2.1,4.7,5.2c0.1,8.4,0,16.7,0,25.1  C298.3,123.4,298.3,124.5,298.3,126z"></path>	<path class="st1" d="M325.9,126c2.4,0,4.6-0.1,6.8,0c3,0.1,5,1.9,5.1,4.4c0.2,2.6-1.9,4.9-4.9,5c-4.1,0.1-8.2,0.1-12.2-0.2  c-2.5-0.1-4.1-1.8-4.1-4.3c-0.1-11.5-0.1-23,0-34.5c0-2.7,2.1-4.6,4.6-4.6c2.7,0,4.7,2.1,4.7,5.2c0.1,6,0,11.9,0,17.9  C325.9,118.6,325.9,122.1,325.9,126z"></path>	<path class="st0" d="M87.4,275.4c4.3-10.5-1.3-18.9-12.6-19c-2.5,0-5-0.1-7.5,0c-3.7,0.2-5.4,1.8-5.4,5.5  c-0.1,10.9-0.1,21.7,0,32.6c0,3.7,1.8,5.4,5.4,5.5c3.5,0.1,7.1,0.3,10.6-0.1c2.8-0.4,5.9-1.1,8.2-2.6  C93.4,292.6,93.9,283.4,87.4,275.4z M78.5,290.5c-2.3,0.2-4.5,0-7,0v-8.8c2.5,0,4.8-0.2,7,0c2.5,0.2,4,1.9,4,4.4  C82.5,288.6,81,290.2,78.5,290.5z M78.5,273.4c-2.3,0.2-4.5,0-7,0v-0.7c0,0,0,0,0,0v-7.4c0,0,0,0,0,0v-0.7c2.5,0,4.8-0.2,7,0  c2.5,0.2,4,1.9,4,4.4C82.5,271.5,81,273.1,78.5,273.4z"></path>	<path class="st0" d="M130.6,273.5c0,3.7,0.1,7.3,0,11c-0.1,8.6-7.3,15.3-16.5,15.5c-8.6,0.2-16.3-6.4-16.6-14.6  c-0.3-7.9-0.2-15.9-0.1-23.8c0-3.1,2.2-5.1,4.9-5.1c2.7,0.1,4.5,2.1,4.5,5.3c0.1,7.1,0,14.2,0,21.3c0,4.5,2.8,7.4,7,7.4  c4.4,0,7.3-2.9,7.3-7.5c0-6.9,0-13.8,0-20.7c0-3.7,1.8-5.8,4.6-5.9c2.9,0,4.8,2.1,4.8,5.7C130.6,266,130.6,269.8,130.6,273.5z"></path>	<path class="st0" d="M152.5,269.2c2.2-3.3,4.1-6.4,6.1-9.4c2.1-3.2,4.9-4.1,7.3-2.4c2.4,1.6,2.6,4.3,0.6,7.5  c-0.3,0.4-0.5,0.9-0.9,1.3c-6.8,8.1-10.1,17.2-8.7,28c0.5,3.6-1.7,5.8-4.6,5.8c-2.9,0-5.1-2.3-4.7-5.8c1.5-10.8-1.9-20-8.6-28.3  c-3.2-3.9-2.8-6.9,0-8.6c2.7-1.7,5.1-0.6,7.8,3.4C148.7,263.4,150.4,266.1,152.5,269.2z"></path></g></svg>