<svg xmlns="http://www.w3.org/2000/svg" xmlns:xlink="http://www.w3.org/1999/xlink" id="Layer_1" x="0px" y="0px" viewBox="0 0 395 398" style="enable-background:new 0 0 395 398;" xml:space="preserve"><style type="text/css">	.st0{fill:#0D144E;stroke:#0D144E;stroke-width:0.75;stroke-miterlimit:10;}	.st1{fill:#5790F8;stroke:#5790F8;stroke-miterlimit:10;}	.st2{fill:#0D144E;stroke:#0D144E;stroke-width:9;stroke-miterlimit:10;}</style><g>	<path class="st0" d="M30,39.6c0,10.8,0,21.1,0,32c2.5,0,5-0.1,7.4,0c5,0.2,8.2,3.2,8.3,7.7c0.1,4.7-3.3,8-8.3,8.1  c-2.3,0.1-4.7,0-7.3,0c0,10.7,0,21.1,0,32c2.6,0,5.2-0.1,7.8,0c4.7,0.2,7.8,3.3,7.9,7.8c0,4.6-3.2,7.9-8,8.1c-2.5,0.1-4.9,0-7.6,0  c0,10.7,0,21.1,0,32c2.7,0,5.3-0.1,7.8,0c4.7,0.2,7.8,3.4,7.8,7.8c0,4.4-3.1,7.7-7.7,8c-2.6,0.1-5.2,0-8,0c0,10.8,0,21.2,0,32.1  c2.7,0,5.3-0.1,7.9,0c4.7,0.2,7.8,3.4,7.8,7.9c0,4.4-3.2,7.7-7.8,7.9c-2.5,0.1-5,0-7.8,0c0,10.6,0,21.1,0,32.1c2.7,0,5.3-0.1,7.9,0  c4.7,0.2,7.7,3.5,7.7,7.9c0,4.4-3.2,7.6-7.8,7.9c-2.5,0.1-5,0-7.7,0c0,10.6,0,21,0,32c2.2,0,4.5,0,6.8,0c5.5,0.1,8.8,3.2,8.8,8  c-0.1,4.8-3.5,7.8-9,7.9c-2.1,0-4.2,0-6.9,0c0,1.5,0,2.8,0,4.1c0,11.2,0,22.5,0,33.7c0,7.4,2.8,10.1,10.2,10.1  c109.8,0,219.6,0,329.3,0c1.5,0,3-0.1,4.5,0.1c4.3,0.5,7.2,3.9,7.1,8.1c-0.1,4.1-3,7.2-7.2,7.6c-1.1,0.1-2.2,0.1-3.4,0.1  c-110.2,0-220.3-0.1-330.5,0.1c-15,0-23.6-9.7-25.4-18.7c-0.5-2.3-0.6-4.7-0.6-7.1c0-110.4,0-220.8,0-331.2  c0-7.8,2.5-10.3,10.3-10.3c4.4,0,8.7-0.1,13.1,0c5.2,0.1,8.4,3.3,8.3,8.1c-0.1,4.5-3.4,7.6-8.3,7.8C35.1,39.6,32.7,39.6,30,39.6z"></path></g><g>	<g>		<path class="st1" d="M137.5,38.9c5.9-6.4,13.3-9.8,22-10.1c4.7-0.1,9.4-0.2,14-0.2V8.2h-1.3v0.2c-2.7,0.5-5.3,0.5-7.5,1.5   c-2.5,1.1-3.1,3.8-3.3,6.2c-2.6,0.3-5.2,0.6-7.7,1c-8.4,1.2-15.8,4.7-22.1,10.4c-4.7,4.2-8.4,9.2-11.2,14.8   c-0.6,1.3-1.2,1.4-2.2,0.7c-3.7-2.5-9-0.3-10.2,4.8c-0.7,3-1.5,5.9-2.3,8.8c-1.3,4.7,2,8.7,6.3,8.8c0.9,0,1.4,0.2,1.6,0.7v0   c0.1,0.2,0.1,0.6,0.1,1c0,0.3,0,0.5,0,0.8c0.5,6.3,3.8,27,27.5,29.6h0v0H162c0,1.8,0.1,3.4-0.1,5c0,0.4-0.9,0.9-1.3,0.9   c-1.8,0.1-3.6,0-5.3,0.1c-3.2,0.1-6.6,0-9.7,0.6c-5.4,1.2-9.9,3.9-13.6,7.7v0c0,0-2,1.5-4.2,4.6c-0.1,0-0.3,0-0.4,0   c-0.1,0.1-0.4,0.8-0.9,2.2c0,0,0,0,0,0c-3.1,5.5-5.6,14.6-1.8,27.9c0.7,2.3,1.5,4.7,2.6,7.2c0.4,0.9,0.8,1.8,1.2,2.7   c0.2,0.4,0.4,0.9,0.6,1.3c4.3,8.4,10.7,15,18.7,19.9c6.7,4.1,14,6.5,21.8,7c1.3,0.1,2.7,0.2,4,0.2v-12.1c-0.8,0-1.5-0.1-2.3-0.1   c-15.1-1.3-25.9-9-32.7-22.6c-2-4-3.5-8.2-4-12.5c-0.8-6.1,1.1-11.5,5.1-16.2c3.5-4,7.9-5.8,13.2-5.7c6.5,0.1,12.9,0,19.4,0h1.2   V86.5c-17,0.4-34.7,0.4-37.6-1.1c-5.7-2.8-7.3-6.7-7.4-7c0,0,0,0,0,0c0,0,0,0,0,0c-2-3.4-2.8-7.3-2.5-11.5   C126.8,56.4,130.3,46.8,137.5,38.9z"></path>		<path class="st1" d="M127.2,153.8c-0.7-1.7-1.5-3.5-2.2-5.2c-0.1-0.7-0.2-1.3-0.4-2C125.3,148.9,126.1,151.3,127.2,153.8z"></path>		<path class="st1" d="M156.8,51.2c0,3.7-3,6.6-6.6,6.5c-3.6,0-6.6-3.1-6.6-6.6c0-3.6,3.1-6.6,6.8-6.6   C154,44.5,156.9,47.5,156.8,51.2z"></path>	</g>	<g>		<path class="st1" d="M241.3,56.6c-0.8-2.9-1.6-5.9-2.3-8.8c-1.2-5.1-6.4-7.3-10.2-4.8c-1,0.7-1.6,0.5-2.2-0.7   c-2.8-5.6-6.5-10.6-11.2-14.8c-6.3-5.7-13.6-9.2-22.1-10.4c-2.5-0.3-5-0.6-7.7-1c-0.2-2.4-0.9-5.1-3.3-6.2c-2.2-1-4.8-1-7.5-1.5   V8.2h-1.3v20.4c4.7,0,9.4,0.1,14,0.2c8.7,0.2,16.1,3.6,22,10.1c7.2,7.9,10.7,17.4,11.5,27.9c0.3,4.2-0.5,8.1-2.5,11.5c0,0,0,0,0,0   c0,0,0,0,0,0c-0.1,0.3-1.7,4.3-7.4,7c-2.9,1.4-20.7,1.4-37.6,1.1v29.3h1.2c6.5,0,12.9,0.1,19.4,0c5.3-0.1,9.7,1.7,13.2,5.7   c4.1,4.7,5.9,10.1,5.1,16.2c-0.6,4.4-2,8.5-4,12.5c-6.7,13.6-17.5,21.3-32.7,22.6c-0.8,0.1-1.5,0.1-2.3,0.1V185   c1.3,0,2.7-0.1,4-0.2c7.8-0.6,15.1-2.9,21.8-7c8-4.9,14.4-11.5,18.7-19.9c0.2-0.4,0.4-0.8,0.6-1.3c0.4-0.9,0.8-1.8,1.2-2.7   c1.1-2.5,1.9-4.9,2.6-7.2c3.8-13.2,1.3-22.3-1.8-27.9c0,0,0,0,0,0c-0.5-1.3-0.9-2.1-0.9-2.2c-0.1,0.1-0.3,0.1-0.4,0   c-2.2-3.1-4.2-4.6-4.2-4.6v0c-3.7-3.9-8.2-6.6-13.6-7.7c-3.1-0.7-6.4-0.5-9.7-0.6c-1.8-0.1-3.6,0.1-5.3-0.1   c-0.5,0-1.3-0.6-1.3-0.9c-0.1-1.6-0.1-3.3-0.1-5h20.6v0h0c23.7-2.6,27-23.4,27.5-29.6c0-0.3,0-0.5,0-0.8c0-0.4,0-0.8,0.1-1v0   c0.2-0.5,0.7-0.7,1.6-0.7C239.2,65.3,242.5,61.3,241.3,56.6z"></path>		<path class="st1" d="M219.9,153.8c0.7-1.7,1.5-3.5,2.2-5.2c0.1-0.7,0.2-1.3,0.4-2C221.8,148.9,221,151.3,219.9,153.8z"></path>		<path class="st1" d="M190.3,51.2c0,3.7,3,6.6,6.6,6.5c3.6,0,6.6-3.1,6.6-6.6c0-3.6-3.1-6.6-6.8-6.6   C193.1,44.5,190.2,47.5,190.3,51.2z"></path>	</g></g><path class="st0" d="M342.6,304.1c0.2,0,0.4,0.2,0.9,0.4v3c0,3.1,0,6.2,0,9.2c0,3.1,2.5,5.6,5.6,5.6h0c3.1,0,5.6-2.5,5.6-5.6 c0-3.1,0-6.2,0-9.4v-3.1c0.7-0.1,1.1-0.2,1.4-0.2c12-0.5,14.4-3.9,13.2-15.4c-1.3-13-0.9-26.2,0.3-39.2c0.7-7.8-2.4-13.3-14-12.9 c-0.2,0-0.4-0.2-0.6-0.3v-4.7h0v-12.4c-0.8-4.4-2.6-6.1-6-6.1c-3.2,0-4.8,1.5-5.8,5.8v9.2h0.1v8.2c-0.5,0.1-0.9,0.2-1.2,0.2 c-12.1,0.5-14.4,3.9-13.2,15.5c1.2,11.6,1.1,23.3,0,35C327.7,300.2,329.4,303.6,342.6,304.1z M340.1,245.4h18v49.8h-18V245.4z"></path><path class="st0" d="M262.8,275.7c0.2,0,0.4,0.2,0.9,0.4v3c0,3.1,0,6.2,0,9.2c0,3.1,2.5,5.6,5.6,5.6l0,0c3.1,0,5.6-2.5,5.6-5.6 c0-3.1,0-6.2,0-9.4v-3.1c0.7-0.1,1.1-0.2,1.4-0.2c12-0.5,14.4-3.9,13.2-15.4c-1.3-13-0.9-26.2,0.3-39.2c0.7-7.8-2.4-13.3-14-12.9 c-0.2,0-0.4-0.2-0.6-0.3v-4.7h0v-12.4c-0.8-4.4-2.6-6.1-6-6.1c-3.2,0-4.8,1.5-5.8,5.8v9.2h0.1v8.2c-0.5,0.1-0.9,0.2-1.2,0.2 c-12.1,0.5-14.4,3.9-13.2,15.5c1.2,11.6,1.1,23.3,0,35C247.9,271.8,249.7,275.2,262.8,275.7z M260.3,217h18v49.8h-18V217z"></path><path class="st0" d="M183,323.6c0.2,0,0.4,0.2,0.9,0.4v3c0,3.1,0,6.2,0,9.2c0,3.1,2.5,5.6,5.6,5.6h0c3.1,0,5.6-2.5,5.6-5.6 c0-3.1,0-6.2,0-9.4v-3.1c0.7-0.1,1.1-0.2,1.4-0.2c12-0.5,14.4-3.9,13.2-15.4c-1.3-13-0.9-26.2,0.3-39.2c0.7-7.8-2.4-13.3-14-12.9 c-0.2,0-0.4-0.2-0.6-0.3V251h0v-12.4c-0.8-4.4-2.6-6.1-6-6.1c-3.2,0-4.8,1.5-5.8,5.8v9.2h0.1v8.2c-0.5,0.1-0.9,0.2-1.2,0.2 c-12.1,0.5-14.4,3.9-13.2,15.5c1.2,11.6,1.1,23.3,0,35C168.1,319.7,169.9,323.1,183,323.6z M180.5,264.9h18v49.8h-18V264.9z"></path><path class="st0" d="M103.1,291.6c0.2,0,0.4,0.2,0.9,0.4v3c0,3.1,0,6.2,0,9.2c0,3.1,2.5,5.6,5.6,5.6h0c3.1,0,5.6-2.5,5.6-5.6 c0-3.1,0-6.2,0-9.4v-3.1c0.7-0.1,1.1-0.2,1.4-0.2c12-0.5,14.4-3.9,13.2-15.4c-1.3-13-0.9-26.2,0.3-39.2c0.7-7.8-2.4-13.3-14-12.9 c-0.2,0-0.4-0.2-0.6-0.3v-4.7h0v-12.4c-0.8-4.4-2.6-6.1-6-6.1c-3.2,0-4.8,1.5-5.8,5.8v9.2h0.1v8.2c-0.5,0.1-0.9,0.2-1.2,0.2 c-12.1,0.5-14.4,3.9-13.2,15.5c1.2,11.6,1.1,23.3,0,35C88.2,287.7,89.9,291,103.1,291.6z M100.5,232.9h18v49.8h-18V232.9z"></path><line class="st2" x1="124.9" y1="249.9" x2="175.6" y2="300.1"></line><line class="st2" x1="204.4" y1="293" x2="254.5" y2="242.3"></line><line class="st2" x1="282.4" y1="230" x2="333.1" y2="280.1"></line></svg>