<?xml version="1.0" encoding="UTF-8"?>
<svg xmlns="http://www.w3.org/2000/svg" xmlns:xlink="http://www.w3.org/1999/xlink" id="Layer_1" x="0px" y="0px" viewBox="0 0 395 398" style="enable-background:new 0 0 395 398;" xml:space="preserve">
  <style type="text/css">	.st0{fill:#5790F8;}	.st1{fill:#0D144E;}</style>
  <g>	<path class="st0" d="M195.5,85.8c-0.1-42.5,34.9-77.4,77.8-77.5c42.6-0.2,77.8,34.8,77.9,77.4c0.1,43-34.7,78.2-77.4,78.3  C230.4,164,195.7,129.3,195.5,85.8z M273.4,152c35.9,0.1,65.7-29.4,65.9-65.2c0.2-36.5-29.2-66.5-65.3-66.5  c-36.8,0-66.3,29.2-66.4,65.8C207.4,122.3,237,151.9,273.4,152z"></path>	<path class="st1" d="M215.6,211.1c5.4-14.3,10.8-28.6,16.3-43.2c3.8,1.4,7.3,2.7,11,4.1c-0.3,1.2-0.5,2.1-0.9,3  c-5.4,14.3-10.7,28.7-16.1,43c-2,5.4-3.8,6.3-9.7,5.5c-14.1-1.8-28.2-3.6-42.3-5.3c-1.3-0.2-2.7,0.3-3.9,0.7  c-10.4,3.8-20.9,7.4-31.1,11.7c-10.3,4.4-20.9,6.2-31.9,7.4c-9,1-18.1,1.8-27.1,3.4c-5.1,0.9-9.9,3.3-14.8,5.1  c-5.6,2.1-11.1,4.4-17,6.8c-1.5-3.8-2.9-7.3-4.4-11c16.2-6.7,31.8-14.1,49.6-14.9c8.9-0.4,18-1.4,26.7-3.4c8.7-2,17-5.7,25.4-8.7  c6.9-2.5,13.9-4.9,20.6-7.9c5-2.3,9.8-1.1,14.7-0.6c10.9,1.3,21.8,2.8,32.6,4.1C213.9,211.2,214.6,211.1,215.6,211.1z"></path>	<path class="st1" d="M184.5,137.1c3.6,2.1,6.8,3.9,10.3,5.9c-5.6,9.9-11.7,19.2-16.4,29.2c-5,10.7-12.5,17.4-23.7,21.4  c-11.7,4.2-23,9.6-34.1,15.1c-7.1,3.5-14.7,3.7-22.2,4.5c-16.8,1.6-33.5,3.1-50.3,4.6c-0.4,0-0.7,0-1.6-0.1  c-0.4-3.7-0.7-7.5-1.2-11.6c8.4-0.8,16.5-1.6,24.7-2.3c12.2-1.1,24.3-2.1,36.5-3.3c2.5-0.3,5.1-1,7.5-2c14.6-6.4,29.1-13,43.8-19.3  c2.7-1.2,4.4-2.8,5.8-5.4c6.1-11,12.4-21.9,18.7-32.8C182.9,139.6,183.6,138.5,184.5,137.1z"></path>	<path class="st0" d="M267.5,116c-4.2,0-7.9,0-11.8,0c0-4,0-7.7,0-12c4.1,0,8.3,0,12.4,0c4.1,0,8.2,0,12.3,0c2.6,0,4.4-1.2,4.8-3.8  c0.5-2.6-1-4.3-3.4-5.1c-6.4-2.2-12.8-4.2-19.1-6.3c-9.1-3-14-9.7-13.2-18c0.9-8.5,7.1-13.9,16.9-14.8c0.2,0,0.4-0.2,0.9-0.4  c0-1.6,0-3.3,0-5.3c4,0,7.8,0,11.9,0c0.1,1.8,0.2,3.6,0.4,5.6c3.8,0,7.5,0,11.5,0c0,4,0,7.8,0,12.1c-6.9,0-13.9,0-20.8,0  c-1.2,0-2.5,0-3.7,0c-2.7,0-4.7,1.2-5,3.9c-0.4,2.6,1.2,4.2,3.6,5c6.8,2.3,13.7,4.6,20.6,6.8c4.6,1.5,8.1,4.4,10.1,8.8  c4.7,10.1-1.8,21.8-13,23.2c-1,0.1-2,0.1-3.2,0.2c-0.1,1.8-0.2,3.7-0.3,5.7c-3.9,0-7.7,0-11.8,0C267.5,120,267.5,118.3,267.5,116z"></path>	<path class="st0" d="M231.7,91.9c0-3.8,0-7.5,0-11.5c3.7,0,7.5,0,11.5,0c0,3.7,0,7.5,0,11.5C239.4,91.9,235.6,91.9,231.7,91.9z"></path>	<path class="st0" d="M303.5,91.8c0-3.9,0-7.6,0-11.5c3.9,0,7.7,0,11.6,0c0,3.8,0,7.5,0,11.5C311.4,91.8,307.6,91.8,303.5,91.8z"></path></g>
  <path class="st1" d="M275.6,330.1c12.3-0.9,14.9-3.7,14.9-15.7c0-19.1,0-38.2,0-57.3c0-11.1-2.9-14.2-13.9-14.8 c-0.2,0-0.4-0.2-0.7-0.4v-20.1h-0.2v-14.3h0c0-2.1,0-3.6,0-5.1c0-5.7,0.1-11.5-0.1-17.2c-0.1-3.6-2.4-5.8-5.6-5.8 c-3.2,0-5.4,2.2-5.6,5.7c-0.1,1.2,0,2.5,0,3.7c0,6.1,0,12.1,0,18.4c-0.1,0-0.1,0-0.1,0v30h0v4.8c-0.7,0.1-1.3,0.3-1.9,0.3 c-9.5,0.5-12.8,4-12.8,13.6c0,19.1,0,38.2,0,57.3c0,13.5,1.4,15.2,14.9,17c0,4.8,0,9.6,0,14.4c0,9.9,0,19.7,0,29.6 c0,3.3,2.3,5.6,5.2,5.7c2.9,0.1,5.4-2,5.8-5.2c0.2-1.1,0.1-2.2,0.1-3.4c0-12.5,0-24.9,0-37.4C275.6,332.7,275.6,331.3,275.6,330.1z  M261,318.5v-64.7h18v64.7H261z"></path>
  <path class="st1" d="M227.9,277.4c0.7-10.1-2.4-17.3-14-16.8c-0.2,0-0.4-0.2-0.6-0.4v-10.5c0.1,0,0.2,0,0.2,0v-11.1h-0.2 c-0.8-6.1-2.5-8.5-6-8.4c-2.8,0-4.4,1.5-5.4,5.6v18.6h-0.4v6c-0.5,0.1-0.9,0.2-1.2,0.3c-11.4,0.6-14.1,4.6-13.4,17.6 c0.9,16.7,1,33.4,0.1,50c-0.9,15.3,1.3,19.3,13.8,19.9c0.2,0,0.4,0.2,0.9,0.5v3.9c0,9.1,0,18.3,0,27.4c0,3.1,2.5,5.6,5.6,5.6h0 c3.1,0,5.6-2.5,5.6-5.6c0-9.2,0-18.3,0-27.5c0-1.3,0-2.7,0-4c0.7-0.2,1.1-0.3,1.4-0.3c12-0.6,14.4-5.1,13.2-20 C226.3,311.4,226.7,294.4,227.9,277.4z M216.3,336.8h-18v-64.6h18V336.8z"></path>
  <path class="st1" d="M147,272.4c-0.2,0-0.4-0.2-0.6-0.3v-8.6c0.1,0,0.2,0,0.2,0v-9.1h-0.2c-0.8-5-2.5-7-6-6.9 c-2.8,0-4.4,1.2-5.4,4.6v15.3h-0.4v4.9c-0.5,0.1-0.9,0.2-1.2,0.2c-10.3,0.4-13.5,3.1-13.5,11.5c0,16.1,0,32.1,0,48.2 c0,9.1,3,11.7,14,12.1c0.2,0,0.4,0.2,0.9,0.4v3.2c0,12-0.1,24,0.1,35.9c0,1.7,1.4,4.1,3.1,5c3.7,2.1,7.9-0.6,8-4.8 c0.1-12.1,0-24.2,0-36.2c0-1.1,0-2.2,0-3.3c0.7-0.1,1.1-0.2,1.4-0.3c10.3-0.4,13.5-3.2,13.5-11.6c0-16.1-0.2-32.1,0.1-48.2 C161.3,277.1,157.9,272,147,272.4z M149.5,334.9h-18v-53h18V334.9z"></path>
  <path class="st1" d="M101.1,296.7c0.7-8.3-2.4-14.2-14-13.8c-0.2,0-0.4-0.2-0.6-0.3V274c0.1,0,0.2,0,0.2,0v-2.9 c0-3.2-2.6-5.8-5.8-5.8h0c-3.2,0-5.8,2.6-5.8,5.8v6.7h-0.4v4.9c-0.5,0.1-0.9,0.2-1.2,0.2c-11.4,0.5-14.1,3.7-13.4,14.5 c0.9,13.7,1,27.4,0.1,41.1c-0.9,12.5,1.3,15.8,13.8,16.4c0.2,0,0.4,0.2,0.9,0.4v3.2c0,4.6,0,9.2,0,13.8c0,3.1,2.5,5.6,5.6,5.6h0 c3.1,0,5.6-2.5,5.6-5.6c0-4.6,0-9.2,0-13.9V355c0.7-0.1,1.1-0.2,1.4-0.3c12-0.5,14.4-4.2,13.2-16.4 C99.5,324.5,99.9,310.6,101.1,296.7z M89.6,345.4h-18v-53h18V345.4z"></path>
</svg>
